<svg width="52" height="52" viewBox="0 0 52 52" fill="none" xmlns="http://www.w3.org/2000/svg"><g clip-path="url(#clip0_6465_62221)"><path fill-rule="evenodd" clip-rule="evenodd" d="M12.5989 7.52148H26.4035C28.7452 7.52148 30.643 9.41927 30.643 11.7632V25.5678C30.643 27.9096 28.7453 29.8095 26.4013 29.8095H12.5989C10.255 29.8073 8.35718 27.9096 8.35718 25.5656V11.7632C8.35718 9.41927 10.255 7.52148 12.5989 7.52148Z" fill="#50C800"/><path fill-rule="evenodd" clip-rule="evenodd" d="M30.6437 21.9181V15.4717C30.3913 14.8558 30.0191 14.3009 29.5578 13.8351C29.5991 13.143 29.4446 12.4423 29.0855 11.8177C28.8504 11.4085 28.2824 11.3497 27.9647 11.7023L27.2443 12.501C27.2399 12.4989 27.2356 12.4989 27.2312 12.4967C27.3248 11.7676 27.2007 11.0146 26.8438 10.3421C26.6218 9.92422 26.1409 9.85023 25.8101 10.1897L22.3496 13.6958C22.3105 13.7328 22.2691 13.772 22.23 13.8112C22.2278 13.8134 22.2234 13.8155 22.2213 13.8177C20.7174 15.1801 18.3735 15.2367 16.9414 13.9853C16.8522 13.8874 16.7586 13.7938 16.6607 13.7024L13.1937 10.1919C12.8629 9.85241 12.382 9.9264 12.16 10.3443C11.8052 11.0146 11.679 11.7632 11.7704 12.488C11.7639 12.4901 11.7574 12.4901 11.7508 12.4923L11.0392 11.7023C10.7214 11.3497 10.1534 11.4085 9.91616 11.8177C9.56359 12.4292 9.40907 13.1148 9.44171 13.7938C8.98685 14.2421 8.61687 14.7775 8.35571 15.3716V22.0203C9.13702 23.8029 10.9173 25.0499 12.987 25.0499H13.209C15.2613 25.0499 17.0285 23.8246 17.8185 22.0661C18.5781 22.0617 19.1286 22.0596 19.4704 22.0596C20.2103 22.0574 20.787 22.0574 21.2006 22.0574C21.9884 23.8202 23.76 25.0499 25.8144 25.0499H25.9711C28.08 25.0499 29.8863 23.7549 30.6437 21.9181Z" fill="#8EE000"/><path fill-rule="evenodd" clip-rule="evenodd" d="M13.3004 14.1375C15.2417 14.1375 16.8174 15.711 16.8174 17.6545V19.7372C16.8174 21.6785 15.2439 23.2542 13.3004 23.2542C11.3591 23.2542 9.78345 21.6807 9.78345 19.7372V17.6545C9.78345 15.711 11.3591 14.1375 13.3004 14.1375Z" fill="white"/><path fill-rule="evenodd" clip-rule="evenodd" d="M25.6557 14.1375C27.597 14.1375 29.1727 15.711 29.1727 17.6545V19.7372C29.1727 21.6785 27.5991 23.2542 25.6557 23.2542C23.7144 23.2542 22.1387 21.6807 22.1387 19.7372V17.6545C22.1387 15.711 23.7122 14.1375 25.6557 14.1375Z" fill="white"/><path fill-rule="evenodd" clip-rule="evenodd" d="M13.8424 16.1572C14.763 16.1572 15.5116 16.9037 15.5116 17.8265V19.6089C15.5116 20.5295 14.7651 21.2782 13.8424 21.2782C12.9218 21.2782 12.1731 20.5317 12.1731 19.6089V17.8265C12.1731 16.9037 12.9218 16.1572 13.8424 16.1572Z" fill="#4B4B4B"/><path fill-rule="evenodd" clip-rule="evenodd" d="M19.5012 20.2036C20.5567 20.2036 21.412 21.0589 21.412 22.1144V22.7783C21.412 23.8338 20.5567 24.689 19.5012 24.689C18.4457 24.689 17.5903 23.8338 17.5903 22.7783V22.1144C17.5903 21.0589 18.4457 20.2036 19.5012 20.2036Z" fill="#F48000"/><path d="M16.8633 22.2972C17.0918 21.0785 18.2213 20.1992 19.5728 20.1992C20.8025 20.1992 21.9146 21.1003 22.1387 22.2972V22.3952C22.1387 22.4714 22.1126 22.5018 22.043 22.4931L19.575 22.9327C19.5076 22.9327 19.4988 22.9327 19.4292 22.9327L16.959 22.4909C16.8894 22.4997 16.8633 22.4692 16.8633 22.393V22.2972Z" fill="#FFC200"/><path fill-rule="evenodd" clip-rule="evenodd" d="M19.096 20.6214C19.2244 20.591 19.3572 20.5735 19.4899 20.5735C19.6314 20.5735 19.7751 20.591 19.9166 20.628C20.2038 20.7019 20.404 20.9609 20.404 21.2569C20.404 21.4963 20.2103 21.6878 19.9731 21.6878H19.0286C18.7892 21.6878 18.5977 21.4941 18.5977 21.2569C18.5954 20.9565 18.8023 20.6932 19.096 20.6214Z" fill="#FFE747"/><path fill-rule="evenodd" clip-rule="evenodd" d="M25.1135 16.1572C26.0342 16.1572 26.7828 16.9037 26.7828 17.8265V19.6089C26.7828 20.5295 26.0364 21.2782 25.1135 21.2782C24.193 21.2782 23.4443 20.5317 23.4443 19.6089V17.8265C23.4465 16.9037 24.193 16.1572 25.1135 16.1572Z" fill="#4B4B4B"/><path d="M12.432 18.1813C13.027 18.1813 13.5093 17.7009 13.5093 17.1083C13.5093 16.5158 13.027 16.0354 12.432 16.0354C11.8371 16.0354 11.3547 16.5158 11.3547 17.1083C11.3547 17.7009 11.8371 18.1813 12.432 18.1813Z" fill="white"/><path d="M23.5402 18.1813C24.1351 18.1813 24.6175 17.7009 24.6175 17.1083C24.6175 16.5158 24.1351 16.0354 23.5402 16.0354C22.9452 16.0354 22.4629 16.5158 22.4629 17.1083C22.4629 17.7009 22.9452 18.1813 23.5402 18.1813Z" fill="white"/></g><ellipse cx="32.5001" cy="33.5213" rx="13.0001" ry="13.0001" fill="white"/><path fill-rule="evenodd" clip-rule="evenodd" d="M34.2409 36.7421H36.8373L37.3313 33.5211H34.2409V31.4309C34.2409 30.5497 34.6726 29.6907 36.0568 29.6907H37.4619V26.9485C37.4619 26.9485 36.1867 26.7309 34.9676 26.7309C32.4223 26.7309 30.7588 28.2735 30.7588 31.0662V33.5211H27.9295V36.7421H30.7588V44.5287C30.0537 44.418 29.3706 44.2413 28.7159 44.0049C24.4245 42.4558 21.3569 38.3467 21.3569 33.5211C21.3569 27.367 26.3458 22.3782 32.4998 22.3782C38.6539 22.3782 43.6427 27.367 43.6427 33.5211C43.6427 38.3467 40.5752 42.4558 36.2838 44.0049C35.6291 44.2413 34.946 44.418 34.2409 44.5287V36.7421Z" fill="#1CB0F6"/><defs><clipPath id="clip0_6465_62221"><rect width="22.2858" height="22.2858" fill="white" transform="translate(8.35718 7.52148)"/></clipPath></defs></svg>