<svg width="640" height="296" viewBox="0 0 640 296" fill="none" xmlns="http://www.w3.org/2000/svg"><path fill-rule="evenodd" clip-rule="evenodd" d="M441.425 276.11H463.355C465.727 276.11 467.649 278.143 467.649 280.652C467.649 283.16 465.727 285.193 463.355 285.193H441.425C439.054 285.193 437.131 283.16 437.131 280.652C437.131 278.143 439.054 276.11 441.425 276.11Z" fill="#FFB100"/><path fill-rule="evenodd" clip-rule="evenodd" d="M476.979 276.11H498.648C500.991 276.11 502.891 278.143 502.891 280.652C502.891 283.16 500.991 285.193 498.648 285.193H476.979C474.636 285.193 472.736 283.16 472.736 280.652C472.736 278.143 474.636 276.11 476.979 276.11Z" fill="#FFB100"/><path fill-rule="evenodd" clip-rule="evenodd" d="M486.171 162.512C481.745 166.786 481.622 173.839 485.896 178.265L510.435 203.676C514.709 208.103 521.762 208.226 526.189 203.951C530.615 199.677 530.738 192.624 526.464 188.198L501.924 162.787C497.65 158.361 490.597 158.238 486.171 162.512Z" fill="#C86902"/><path fill-rule="evenodd" clip-rule="evenodd" d="M454.072 162.512C458.499 166.786 458.622 173.839 454.347 178.265L429.808 203.676C425.534 208.103 418.481 208.226 414.055 203.951C409.629 199.677 409.505 192.624 413.78 188.198L438.319 162.787C442.593 158.361 449.646 158.238 454.072 162.512Z" fill="#C86902"/><path opacity="0.317825" fill-rule="evenodd" clip-rule="evenodd" d="M453.978 162.512C458.404 166.786 458.527 173.839 454.253 178.265L429.714 203.676C425.44 208.103 418.387 208.226 413.96 203.951C409.534 199.677 409.411 192.624 413.685 188.198L438.225 162.787C442.499 158.361 449.552 158.238 453.978 162.512Z" fill="#C86902"/><path fill-rule="evenodd" clip-rule="evenodd" d="M445.963 207.225H493.788C496.089 207.225 497.954 209.09 497.954 211.391V269.362C497.954 271.663 496.089 273.528 493.788 273.528H445.963C443.661 273.528 441.796 271.663 441.796 269.362V211.391C441.796 209.09 443.661 207.225 445.963 207.225Z" fill="#744007"/><path fill-rule="evenodd" clip-rule="evenodd" d="M489.845 85.5289C489.845 100.359 477.823 112.381 462.993 112.381H448.22C433.39 112.381 421.368 100.359 421.368 85.5289C421.368 70.699 433.39 58.677 448.22 58.677H462.993C477.823 58.677 489.845 70.699 489.845 85.5289Z" fill="#3D3D3D"/><mask id="mask0" mask-type="alpha" maskUnits="userSpaceOnUse" x="425" y="149" width="90" height="112"><path d="M470.03 149.436C494.529 149.436 514.388 169.296 514.388 193.794V254.013C514.388 257.787 511.328 260.848 507.553 260.848H432.507C428.733 260.848 425.672 257.787 425.672 254.013V193.794C425.672 169.296 445.532 149.436 470.03 149.436Z" fill="white"/></mask><g mask="url(#mask0)"><path d="M470.03 149.436C494.529 149.436 514.388 169.296 514.388 193.794V254.013C514.388 257.787 511.328 260.848 507.553 260.848H432.507C428.733 260.848 425.672 257.787 425.672 254.013V193.794C425.672 169.296 445.532 149.436 470.03 149.436Z" fill="white"/><path d="M474.749 170.993C486.154 170.993 495.4 161.747 495.4 150.342C495.4 138.936 486.154 129.69 474.749 129.69C463.343 129.69 454.097 138.936 454.097 150.342C454.097 161.747 463.343 170.993 474.749 170.993Z" fill="#FFCBA3"/></g><path fill-rule="evenodd" clip-rule="evenodd" d="M455.364 151.919L455.364 260.848L432.508 260.848C428.733 260.848 425.673 257.788 425.673 254.013V208.849C425.673 205.895 425.163 200.877 424.143 193.795C424.143 180.655 431.386 168.849 440.465 160.726C444.761 156.883 449.81 153.864 455.364 151.919ZM499.597 160.726C508.675 168.849 515.919 180.655 515.919 193.795C514.899 200.877 514.389 205.895 514.389 208.849V254.013C514.389 257.788 511.328 260.848 507.554 260.848L484.53 260.848L484.531 151.861C490.15 153.804 495.258 156.844 499.597 160.726Z" fill="#C86902"/><mask id="mask1" mask-type="alpha" maskUnits="userSpaceOnUse" x="424" y="84" width="92" height="57"><path d="M451.497 84.4099H488.499C503.506 84.4099 515.672 96.5759 515.672 111.583V113.125C515.672 128.133 503.506 140.299 488.499 140.299H451.497C436.489 140.299 424.323 128.133 424.323 113.125V111.583C424.323 96.5759 436.489 84.4099 451.497 84.4099Z" fill="white"/></mask><g mask="url(#mask1)"><path d="M451.497 84.4099H488.499C503.506 84.4099 515.672 96.5759 515.672 111.583V113.125C515.672 128.133 503.506 140.299 488.499 140.299H451.497C436.489 140.299 424.323 128.133 424.323 113.125V111.583C424.323 96.5759 436.489 84.4099 451.497 84.4099Z" fill="#FFCBA3"/><path opacity="0.689174" fill-rule="evenodd" clip-rule="evenodd" d="M499.453 61.5527H525.757C531.149 61.5527 535.521 65.9244 535.521 71.3171V89.8693C535.521 95.262 531.149 99.6337 525.757 99.6337H499.453C494.06 99.6337 489.688 95.262 489.688 89.8693V71.3171C489.688 65.9244 494.06 61.5527 499.453 61.5527Z" fill="#C4C4C4"/></g><path fill-rule="evenodd" clip-rule="evenodd" d="M459.536 90.4756C464.52 90.4756 468.561 94.5163 468.561 99.5008V105.07C468.561 110.054 464.52 114.095 459.536 114.095C454.551 114.095 450.511 110.054 450.511 105.07V99.5008C450.511 94.5163 454.551 90.4756 459.536 90.4756Z" fill="#E99B5F"/><path fill-rule="evenodd" clip-rule="evenodd" d="M459.536 93.7395C464.52 93.7395 468.561 97.7802 468.561 102.765V108.333C468.561 113.318 464.52 117.359 459.536 117.359C454.551 117.359 450.511 113.318 450.511 108.333V102.765C450.511 97.7802 454.551 93.7395 459.536 93.7395Z" fill="white"/><path fill-rule="evenodd" clip-rule="evenodd" d="M462.064 99.1169C464.309 99.1169 466.129 100.937 466.129 103.182V108.287C466.129 110.532 464.309 112.352 462.064 112.352C459.819 112.352 458 110.532 458 108.287V103.182C458 100.937 459.819 99.1169 462.064 99.1169Z" fill="#3D3D3D"/><path fill-rule="evenodd" clip-rule="evenodd" d="M458.729 103.535C460.479 103.535 461.898 102.117 461.898 100.367C461.898 98.6168 460.479 97.1982 458.729 97.1982C456.98 97.1982 455.561 98.6168 455.561 100.367C455.561 102.117 456.98 103.535 458.729 103.535Z" fill="white"/><path fill-rule="evenodd" clip-rule="evenodd" d="M480.816 90.4756C485.8 90.4756 489.841 94.5163 489.841 99.5008V105.07C489.841 110.054 485.8 114.095 480.816 114.095C475.831 114.095 471.791 110.054 471.791 105.07V99.5008C471.791 94.5163 475.831 90.4756 480.816 90.4756Z" fill="#E99B5F"/><path fill-rule="evenodd" clip-rule="evenodd" d="M480.816 93.7395C485.8 93.7395 489.841 97.7802 489.841 102.765V108.333C489.841 113.318 485.8 117.359 480.816 117.359C475.831 117.359 471.791 113.318 471.791 108.333V102.765C471.791 97.7802 475.831 93.7395 480.816 93.7395Z" fill="white"/><path fill-rule="evenodd" clip-rule="evenodd" d="M478.955 99.1187C481.2 99.1187 483.02 100.939 483.02 103.183V108.289C483.02 110.534 481.2 112.354 478.955 112.354C476.71 112.354 474.89 110.534 474.89 108.289V103.183C474.89 100.939 476.71 99.1187 478.955 99.1187Z" fill="#3D3D3D"/><path fill-rule="evenodd" clip-rule="evenodd" d="M475.62 103.536C477.369 103.536 478.788 102.117 478.788 100.367C478.788 98.6175 477.369 97.199 475.62 97.199C473.87 97.199 472.451 98.6175 472.451 100.367C472.451 102.117 473.87 103.536 475.62 103.536Z" fill="white"/><path fill-rule="evenodd" clip-rule="evenodd" d="M460.329 93.8213C464.872 93.8213 468.555 97.5039 468.555 102.047V103.604H452.104V102.047C452.104 97.5039 455.787 93.8213 460.329 93.8213Z" fill="#E99B5F"/><path fill-rule="evenodd" clip-rule="evenodd" d="M480.913 93.0505C485.931 93.0505 490 97.1188 490 102.137V103.604H471.826V102.137C471.826 97.1188 475.894 93.0505 480.913 93.0505Z" fill="#E99B5F"/><path fill-rule="evenodd" clip-rule="evenodd" d="M470.117 121.195C472.218 121.195 473.921 119.492 473.921 117.392C473.921 115.292 470.117 110.325 470.117 110.325L469.76 110.806C468.813 112.102 466.312 115.69 466.312 117.392C466.312 119.492 468.016 121.195 470.117 121.195Z" fill="#E99B5F"/><path d="M517.501 119.237C521.903 119.237 525.472 115.669 525.472 111.267C525.472 106.864 521.903 103.296 517.501 103.296C513.098 103.296 509.53 106.864 509.53 111.267C509.53 115.669 513.098 119.237 517.501 119.237Z" fill="#FFCBA3"/><path d="M421.85 119.237C426.252 119.237 429.821 115.669 429.821 111.267C429.821 106.864 426.252 103.296 421.85 103.296C417.448 103.296 413.879 106.864 413.879 111.267C413.879 115.669 417.448 119.237 421.85 119.237Z" fill="#FFCBA3"/><path fill-rule="evenodd" clip-rule="evenodd" d="M490.232 111.683C489.274 111.683 479.714 113.275 475.969 116.047C473.472 117.895 475.924 118.316 483.323 117.311L493.864 116.047C492.082 113.138 490.872 111.683 490.232 111.683Z" fill="#FFCBA3"/><path d="M422.756 123.53C424.857 123.53 426.56 121.827 426.56 119.726C426.56 117.625 424.857 115.922 422.756 115.922C420.655 115.922 418.952 117.625 418.952 119.726C418.952 121.827 420.655 123.53 422.756 123.53Z" fill="#C86902"/><path fill-rule="evenodd" clip-rule="evenodd" d="M455.255 189.111H484.602V263.022H455.255V189.111Z" fill="#744007"/><path fill-rule="evenodd" clip-rule="evenodd" d="M455.426 134.774H484.523V151.984H455.426V134.774Z" fill="#FFCBA3"/><path fill-rule="evenodd" clip-rule="evenodd" d="M469.364 218.277H471.672V273.529H469.364V218.277Z" fill="#613404"/><path fill-rule="evenodd" clip-rule="evenodd" d="M475.712 218.248C475.712 218.885 475.195 219.402 474.558 219.402H466.479C465.841 219.402 465.325 218.885 465.325 218.248C465.325 217.61 465.841 217.094 466.479 217.094H474.558C475.195 217.094 475.712 217.61 475.712 218.248Z" fill="#613404"/><path fill-rule="evenodd" clip-rule="evenodd" d="M441.093 201.11L442.035 201.654C447.363 204.73 449.189 211.544 446.113 216.873C443.036 222.201 436.222 224.027 430.894 220.951L429.952 220.407C424.624 217.331 422.798 210.517 425.874 205.188C428.951 199.859 435.765 198.034 441.093 201.11Z" fill="#FFCBA3"/><path fill-rule="evenodd" clip-rule="evenodd" d="M515.204 216.657L498.908 201.461L510.707 188.808C514.903 184.308 521.953 184.062 526.453 188.258C530.953 192.454 531.199 199.504 527.003 204.004L515.204 216.657Z" fill="#C86902"/><path fill-rule="evenodd" clip-rule="evenodd" d="M414.311 188.258C418.811 184.062 425.86 184.308 430.057 188.808L441.856 201.461L425.56 216.657L413.761 204.004C409.564 199.504 409.81 192.454 414.311 188.258Z" fill="#C86902"/><path fill-rule="evenodd" clip-rule="evenodd" d="M426.22 217.559L452.421 207.553V223.052C452.421 227.288 449.176 230.818 444.955 231.175L435.058 232.011C430.572 232.39 426.628 229.061 426.249 224.575C426.229 224.346 426.22 224.117 426.22 223.888V217.559Z" fill="#B45E00"/><path fill-rule="evenodd" clip-rule="evenodd" d="M513.833 217.559L487.632 207.553V223.052C487.632 227.288 490.876 230.818 495.097 231.175L504.994 232.011C509.481 232.39 513.425 229.061 513.804 224.575C513.823 224.346 513.833 224.117 513.833 223.888V217.559Z" fill="#B45E00"/><path fill-rule="evenodd" clip-rule="evenodd" d="M445.048 203.875L449.445 207.07C451.185 208.334 451.571 210.77 450.307 212.51C449.042 214.25 446.607 214.636 444.866 213.372L440.47 210.177C438.729 208.913 438.344 206.477 439.608 204.737C440.872 202.997 443.308 202.611 445.048 203.875Z" fill="#FFCBA3"/><path fill-rule="evenodd" clip-rule="evenodd" d="M460.854 87.3823V89.1939C460.854 100.199 451.933 109.121 440.927 109.121C429.922 109.121 421 100.199 421 89.1939V87.3823C421 76.3768 429.922 67.4551 440.927 67.4551C451.933 67.4551 460.854 76.3768 460.854 87.3823Z" fill="#3D3D3D"/><mask id="mask2" mask-type="alpha" maskUnits="userSpaceOnUse" x="469" y="118" width="21" height="18"><path d="M485.562 118.956C483.015 118.112 480.288 119.245 479.046 121.52C478.223 122.65 477.027 123.705 475.351 124.074L475.081 124.105L474.709 124.14C471.745 124.448 469.566 127.078 469.827 130.057C470.09 133.066 472.743 135.292 475.752 135.029C482.394 134.448 487.204 131.398 489.035 125.867C489.985 123 488.43 119.905 485.562 118.956Z" fill="white"/></mask><g mask="url(#mask2)"><path d="M485.562 118.956C483.015 118.112 480.288 119.245 479.046 121.52C478.223 122.65 477.027 123.705 475.351 124.074L475.081 124.105L474.709 124.14C471.745 124.448 469.566 127.078 469.827 130.057C470.09 133.066 472.743 135.292 475.752 135.029C482.394 134.448 487.204 131.398 489.035 125.867C489.985 123 488.43 119.905 485.562 118.956Z" fill="#B23232"/><path fill-rule="evenodd" clip-rule="evenodd" d="M472.229 148.983C477.693 148.983 482.123 144.553 482.123 139.089C482.123 133.625 477.693 129.196 472.229 129.196C466.765 129.196 462.336 133.625 462.336 139.089C462.336 144.553 466.765 148.983 472.229 148.983Z" fill="#F14C4C"/><path fill-rule="evenodd" clip-rule="evenodd" d="M468.965 118.247H487.265C488.864 118.247 490.161 119.544 490.161 121.143V121.947C490.161 123.546 488.864 124.843 487.265 124.843H471.861C470.262 124.843 468.965 123.546 468.965 121.947V118.247Z" fill="white"/></g><path fill-rule="evenodd" clip-rule="evenodd" d="M132.469 280.504C132.469 277.863 134.609 275.723 137.25 275.723H151.496C154.137 275.723 156.277 277.863 156.277 280.504C156.277 283.144 154.137 285.285 151.496 285.285H137.25C134.609 285.285 132.469 283.144 132.469 280.504Z" fill="#593F86"/><path fill-rule="evenodd" clip-rule="evenodd" d="M118.756 280.504C118.756 277.863 120.897 275.723 123.537 275.723H137.784C140.424 275.723 142.565 277.863 142.565 280.504C142.565 283.144 140.424 285.285 137.784 285.285H123.537C120.897 285.285 118.756 283.144 118.756 280.504Z" fill="#593F86"/><path fill-rule="evenodd" clip-rule="evenodd" d="M140.846 77.9843C159.736 78.6439 175.335 92.9554 177.615 111.719L184.455 168.007C184.582 169.051 183.839 170 182.795 170.127C182.696 170.139 182.597 170.143 182.498 170.139L96.8364 167.148C95.7853 167.111 94.963 166.23 94.9997 165.178C95.0021 165.108 95.0086 165.037 95.0189 164.967L103.24 109.315C105.972 90.8208 122.163 77.3319 140.846 77.9843Z" fill="#A570FF"/><path fill-rule="evenodd" clip-rule="evenodd" d="M135.561 146.374L150.989 149.094C151.653 149.212 152.122 149.701 152.036 150.187L144.529 192.762C144.443 193.248 143.835 193.548 143.171 193.431L127.743 190.71C127.079 190.593 126.611 190.104 126.697 189.618L134.204 147.043C134.289 146.556 134.897 146.257 135.561 146.374Z" fill="#593F86"/><path fill-rule="evenodd" clip-rule="evenodd" d="M169.788 104.832L172.581 104.44C176.539 103.884 180.198 106.641 180.754 110.599C181.311 114.556 178.553 118.216 174.595 118.772L171.802 119.164C167.845 119.721 164.185 116.963 163.629 113.006C163.073 109.048 165.83 105.389 169.788 104.832Z" fill="#FFC6B7"/><mask id="mask3" mask-type="alpha" maskUnits="userSpaceOnUse" x="101" y="79" width="80" height="80"><path d="M136.97 83.8138C152.79 81.5904 167.756 91.602 171.741 107.073L178.198 132.147C180.333 140.437 175.343 148.889 167.052 151.024C166.49 151.169 165.919 151.282 165.344 151.363L126.691 156.795C118.214 157.986 110.375 152.08 109.184 143.602C109.081 142.872 109.031 142.136 109.033 141.398L109.11 115.766C109.158 99.669 121.029 86.0541 136.97 83.8138Z" fill="white"/></mask><g mask="url(#mask3)"><path d="M136.97 83.8138C152.79 81.5904 167.756 91.602 171.741 107.073L178.198 132.147C180.333 140.437 175.343 148.889 167.052 151.024C166.49 151.169 165.919 151.282 165.344 151.363L126.691 156.795C118.214 157.986 110.375 152.08 109.184 143.602C109.081 142.872 109.031 142.136 109.033 141.398L109.11 115.766C109.158 99.669 121.029 86.0541 136.97 83.8138Z" fill="#FFC6B7"/><path fill-rule="evenodd" clip-rule="evenodd" d="M123.094 56.3972L174.652 49.1511C176.944 48.8291 179.062 50.4255 179.384 52.7168L185.798 98.3527C186.12 100.644 184.523 102.762 182.232 103.084L149.155 107.733C136.657 109.49 125.101 100.782 123.345 88.2842L119.528 61.1289C119.206 58.8377 120.803 56.7192 123.094 56.3972Z" fill="#A570FF"/></g><mask id="mask4" mask-type="alpha" maskUnits="userSpaceOnUse" x="140" y="108" width="23" height="24"><path d="M158.594 108.288L150.303 109.454C145.057 110.191 141.401 115.042 142.139 120.288L143.068 126.902C143.428 129.462 145.794 131.245 148.353 130.885L153.219 130.201C158.465 129.464 162.121 124.613 161.383 119.367L159.972 109.327C159.879 108.66 159.261 108.195 158.594 108.288Z" fill="white"/></mask><g mask="url(#mask4)"><path d="M158.594 108.288L150.303 109.454C145.057 110.191 141.401 115.042 142.139 120.288L143.068 126.902C143.428 129.462 145.794 131.245 148.353 130.885L153.219 130.201C158.465 129.464 162.121 124.613 161.383 119.367L159.972 109.327C159.879 108.66 159.261 108.195 158.594 108.288Z" fill="white"/><path fill-rule="evenodd" clip-rule="evenodd" d="M153.607 106.865C155.962 106.534 158.14 108.175 158.471 110.53L159.224 115.887C159.555 118.242 157.914 120.42 155.559 120.751C153.203 121.082 151.025 119.441 150.694 117.085L149.942 111.729C149.611 109.373 151.252 107.196 153.607 106.865Z" fill="#3D3D3D"/><path fill-rule="evenodd" clip-rule="evenodd" d="M138.7 102.461L163.078 99.0353L165.315 114.952L140.937 118.378L138.7 102.461Z" fill="#A570FF"/></g><mask id="mask5" mask-type="alpha" maskUnits="userSpaceOnUse" x="119" y="111" width="23" height="24"><path d="M120.598 113.629L128.888 112.464C134.134 111.726 138.985 115.382 139.723 120.628L140.624 127.041C140.999 129.711 139.139 132.18 136.468 132.556L131.804 133.211C126.558 133.948 121.707 130.293 120.97 125.047L119.559 115.007C119.465 114.34 119.93 113.723 120.598 113.629Z" fill="white"/></mask><g mask="url(#mask5)"><path d="M120.598 113.629L128.888 112.464C134.134 111.726 138.985 115.382 139.723 120.628L140.624 127.041C140.999 129.711 139.139 132.18 136.468 132.556L131.804 133.211C126.558 133.948 121.707 130.293 120.97 125.047L119.559 115.007C119.465 114.34 119.93 113.723 120.598 113.629Z" fill="white"/><path fill-rule="evenodd" clip-rule="evenodd" d="M133.082 109.894C135.437 109.563 137.615 111.204 137.946 113.559L138.699 118.916C139.03 121.271 137.389 123.449 135.033 123.78C132.678 124.111 130.5 122.47 130.169 120.114L129.416 114.758C129.085 112.403 130.726 110.225 133.082 109.894Z" fill="#3D3D3D"/><path fill-rule="evenodd" clip-rule="evenodd" d="M116.118 105.635L140.496 102.208L142.733 118.125L118.355 121.551L116.118 105.635Z" fill="#A570FF"/></g><path d="M150.151 134.264C152.715 130.705 157.431 128.636 164.297 128.058" stroke="#FFC6B7" stroke-width="2.09215" stroke-linecap="round"/><path d="M148.938 142.162C150.937 136.49 153.757 133.903 157.363 135.112C158.021 135.332 158.375 136.045 158.155 136.703C157.934 137.361 157.222 137.716 156.563 137.495C154.651 136.854 152.911 138.45 151.308 142.997C151.078 143.652 150.36 143.996 149.705 143.765C149.051 143.534 148.707 142.816 148.938 142.162Z" fill="#EE9583"/><path fill-rule="evenodd" clip-rule="evenodd" d="M140.674 137.645C142.807 137.72 144.597 136.061 144.671 133.939C144.745 131.818 141.057 126.666 141.057 126.666L140.572 127.273C139.496 128.648 137.003 132.007 136.945 133.669C136.87 135.791 138.54 137.571 140.674 137.645Z" fill="#EE9583"/><path fill-rule="evenodd" clip-rule="evenodd" d="M113.552 91.374L114.018 90.9169L125.026 86.3428C126.191 85.8585 127.528 86.4107 128.013 87.5761C128.128 87.854 128.188 88.152 128.188 88.453V158.076C128.188 159.128 127.335 159.981 126.283 159.981H104.666C103.404 159.981 102.381 158.958 102.381 157.696V118.321C102.381 108.204 106.406 98.5117 113.552 91.374Z" fill="#A570FF"/><path fill-rule="evenodd" clip-rule="evenodd" d="M124.63 191.851H140.413C141.034 191.851 141.547 192.336 141.581 192.956L145.739 268.379C145.775 269.024 145.281 269.576 144.636 269.611C144.615 269.613 144.593 269.613 144.572 269.613H128.789C128.168 269.613 127.656 269.128 127.621 268.508L123.463 193.085C123.427 192.44 123.921 191.888 124.566 191.853C124.587 191.851 124.609 191.851 124.63 191.851Z" fill="#A570FF"/><path fill-rule="evenodd" clip-rule="evenodd" d="M141.603 159.695L142.277 159.888C145.323 160.761 147.732 163.097 148.698 166.115L157.574 193.818C158.791 197.62 156.697 201.689 152.895 202.907C151.533 203.343 150.072 203.366 148.697 202.971L113.327 192.829C109.49 191.729 107.271 187.726 108.371 183.888C108.766 182.514 109.559 181.287 110.651 180.363L132.858 161.572C135.277 159.526 138.557 158.821 141.603 159.695Z" fill="#593F86"/><path fill-rule="evenodd" clip-rule="evenodd" d="M121.667 179.636C124.701 177.59 128.819 178.391 130.866 181.424C132.912 184.458 132.112 188.576 129.078 190.623C126.044 192.669 121.926 191.869 119.879 188.835C117.833 185.801 118.634 181.683 121.667 179.636Z" fill="#FFC6B7"/><path fill-rule="evenodd" clip-rule="evenodd" d="M116.611 181.486L150.194 191.116C153.392 192.033 155.241 195.369 154.324 198.567C153.407 201.765 150.071 203.614 146.874 202.697L113.29 193.067C110.093 192.15 108.244 188.814 109.16 185.616C110.077 182.419 113.413 180.57 116.611 181.486Z" fill="#593F86"/><path fill-rule="evenodd" clip-rule="evenodd" d="M154.445 191.52L140.63 181.847C135.273 178.096 127.926 179.311 124.052 184.527L123.851 184.805L147.536 201.389C150.261 203.297 154.017 202.635 155.925 199.91C157.833 197.185 157.171 193.429 154.445 191.52Z" fill="#593F86"/><path fill-rule="evenodd" clip-rule="evenodd" d="M148.965 191.885C147.543 192.956 145.522 192.672 144.45 191.25C144.376 191.152 144.308 191.05 144.246 190.945L139.683 183.187L142.561 183.101C145.205 183.022 147.722 184.23 149.314 186.342L149.676 186.823C150.877 188.418 150.559 190.684 148.965 191.885Z" fill="#FFC6B7"/><path fill-rule="evenodd" clip-rule="evenodd" d="M48.0337 280.369C48.0337 277.705 50.0374 275.545 52.5091 275.545H69.8005C72.2722 275.545 74.2759 277.705 74.2759 280.369C74.2759 283.033 72.2722 285.193 69.8005 285.193H52.5091C50.0374 285.193 48.0337 283.033 48.0337 280.369Z" fill="#FF86D0"/><path opacity="0.3" fill-rule="evenodd" clip-rule="evenodd" d="M0 290.355C0 287.691 2.00371 285.531 4.4754 285.531H635.525C637.996 285.531 640 287.691 640 290.355C640 293.019 637.996 295.179 635.525 295.179H4.4754C2.00371 295.179 0 293.019 0 290.355Z" fill="#AFAFAF"/><path fill-rule="evenodd" clip-rule="evenodd" d="M3.06891 197.466C1.53019 195.496 1.87938 192.652 3.84885 191.114L17.6268 180.349C19.5962 178.81 22.4402 179.16 23.9789 181.129C25.5176 183.099 25.1684 185.943 23.199 187.481L9.42104 198.246C7.45157 199.784 4.60762 199.435 3.06891 197.466Z" fill="#FF86D0"/><path fill-rule="evenodd" clip-rule="evenodd" d="M54.6375 143.619L71.4506 149.055C73.491 149.715 75.0059 151.439 75.3972 153.548L77.4484 164.598C78.0373 167.771 75.9428 170.82 72.7702 171.409C72.0785 171.538 71.3693 171.54 70.6768 171.416L48.4395 167.445C45.263 166.878 43.1478 163.843 43.715 160.666C43.7478 160.483 43.7893 160.301 43.8394 160.122L47.3251 147.641C48.1931 144.533 51.4162 142.718 54.524 143.586L54.6375 143.619Z" fill="#1CB0F6"/><mask id="mask6" mask-type="alpha" maskUnits="userSpaceOnUse" x="15" y="169" width="69" height="103"><path d="M55.7164 169.338C71.0843 169.338 83.5425 181.753 83.5425 197.068C83.5425 198.6 83.4179 200.103 83.1781 201.567L83.1785 201.533C83.1785 201.947 83.1346 202.359 83.0476 202.764L69.1614 267.235C68.6073 269.808 66.3327 271.645 63.7011 271.645H49.1618C46.077 271.645 43.5762 269.144 43.5762 266.059C43.5762 265.664 43.6182 265.269 43.7015 264.883L50.341 234.058C44.3462 238.437 35.9054 237.386 31.1814 231.552L18.6801 216.115C13.8064 210.096 14.7345 201.266 20.7529 196.393C22.9503 194.613 25.5226 193.607 28.1402 193.34C29.9666 179.788 41.6169 169.338 55.7164 169.338Z" fill="white"/></mask><g mask="url(#mask6)"><path d="M55.7164 169.338C71.0843 169.338 83.5425 181.753 83.5425 197.068C83.5425 198.6 83.4179 200.103 83.1781 201.567L83.1785 201.533C83.1785 201.947 83.1346 202.359 83.0476 202.764L69.1614 267.235C68.6073 269.808 66.3327 271.645 63.7011 271.645H49.1618C46.077 271.645 43.5762 269.144 43.5762 266.059C43.5762 265.664 43.6182 265.269 43.7015 264.883L50.341 234.058C44.3462 238.437 35.9054 237.386 31.1814 231.552L18.6801 216.115C13.8064 210.096 14.7345 201.266 20.7529 196.393C22.9503 194.613 25.5226 193.607 28.1402 193.34C29.9666 179.788 41.6169 169.338 55.7164 169.338Z" fill="#FFB7E3"/><path d="M60.8683 200.553C61.5075 200.465 62.0975 200.911 62.186 201.55L62.3742 202.965C63.6814 213.214 63.3791 220.681 61.4133 225.424C59.1947 230.777 54.8441 234.093 49.7669 236.843C49.1635 237.169 48.6823 236.713 48.4795 236.1C48.2767 235.488 50.1118 234.376 50.3415 234.057C54.1293 231.92 57.4151 228.967 59.2544 224.529C61.1121 220.047 61.3382 212.473 59.871 201.871C59.7825 201.232 60.229 200.642 60.8683 200.553Z" fill="#FFA1DA"/><path d="M55.3761 199.089C55.5217 198.508 56.0793 198.138 56.6594 198.214L56.7935 198.239L64.4419 200.155C65.068 200.312 65.4483 200.946 65.2916 201.572C65.146 202.154 64.5884 202.523 64.0082 202.448L63.8741 202.422L56.2257 200.506C55.5997 200.35 55.2193 199.715 55.3761 199.089Z" fill="#FFA1DA"/><path d="M26.8143 192.417L26.9507 192.411C27.596 192.42 28.1118 192.951 28.1028 193.596C27.9981 201.104 29.2817 206.886 31.9132 210.951C32.2639 211.493 32.109 212.216 31.5672 212.567C31.0254 212.918 30.302 212.763 29.9513 212.221C27.0369 207.719 25.6553 201.496 25.766 193.563C25.7743 192.964 26.2323 192.477 26.8143 192.417Z" fill="#FFA1DA"/></g><mask id="mask7" mask-type="alpha" maskUnits="userSpaceOnUse" x="45" y="166" width="31" height="11"><path d="M45.9392 166.349L75.9029 171.633L75.0335 176.563L45.0698 171.28L45.9392 166.349Z" fill="white"/></mask><g mask="url(#mask7)"><path d="M45.9392 166.349L75.9029 171.633L75.0335 176.563L45.0698 171.28L45.9392 166.349Z" fill="#FF86D0"/><path fill-rule="evenodd" clip-rule="evenodd" d="M55.08 166.326L59.0625 167.028L57.6915 174.803L53.709 174.101L55.08 166.326Z" fill="#FFB7E3"/><path fill-rule="evenodd" clip-rule="evenodd" d="M68.9316 168.662L72.9141 169.364L71.5431 177.139L67.5605 176.437L68.9316 168.662Z" fill="#FFB7E3"/></g><path fill-rule="evenodd" clip-rule="evenodd" d="M73.4753 141.791L104.411 152.443C108.683 153.914 110.953 158.569 109.482 162.84C108.011 167.112 103.357 169.382 99.0852 167.911L68.1492 157.259C63.8778 155.788 61.6075 151.133 63.0782 146.862C64.549 142.591 69.2039 140.32 73.4753 141.791Z" fill="#1CB0F6"/><path fill-rule="evenodd" clip-rule="evenodd" d="M68.8914 139.445H78.2395C80.8209 139.445 82.9136 141.537 82.9136 144.119V154.635C82.9136 157.217 80.8209 159.309 78.2395 159.309H68.8914C66.3099 159.309 64.2173 157.217 64.2173 154.635V144.119C64.2173 141.537 66.3099 139.445 68.8914 139.445Z" fill="#FFB7E3"/><path fill-rule="evenodd" clip-rule="evenodd" d="M83.6914 143.95L78.3829 143.579C76.5793 143.453 75.015 144.812 74.8888 146.616C74.8771 146.784 74.8783 146.952 74.8924 147.119L76.4457 165.566C76.5811 167.175 77.869 168.445 79.4794 168.557L87.6173 169.126C89.4209 169.253 90.9852 167.893 91.1113 166.089C91.1343 165.761 91.1077 165.432 91.0325 165.112L86.6498 146.466C86.3216 145.07 85.1224 144.05 83.6914 143.95Z" fill="#FFB7E3"/><mask id="mask8" mask-type="alpha" maskUnits="userSpaceOnUse" x="9" y="62" width="87" height="91"><path d="M52.4038 62.322C76.1204 62.322 95.3466 81.5482 95.3466 105.265V109.887C95.3466 133.603 76.1204 152.829 52.4038 152.829C28.6871 152.829 9.46094 133.603 9.46094 109.887V105.265C9.46094 81.5482 28.6871 62.322 52.4038 62.322Z" fill="white"/></mask><g mask="url(#mask8)"><path d="M52.4038 62.322C76.1204 62.322 95.3466 81.5482 95.3466 105.265V109.887C95.3466 133.603 76.1204 152.829 52.4038 152.829C28.6871 152.829 9.46094 133.603 9.46094 109.887V105.265C9.46094 81.5482 28.6871 62.322 52.4038 62.322Z" fill="#FFB7E3"/><path d="M25.346 145.859C25.4287 144.746 26.3986 143.91 27.5122 143.993C55.2628 146.055 72.0083 135.62 80.6258 117.688C81.1095 116.682 82.3175 116.258 83.324 116.741C84.3305 117.225 84.7544 118.433 84.2707 119.44C74.9544 138.826 56.6772 150.215 27.2126 148.025C26.0989 147.943 25.2632 146.973 25.346 145.859Z" fill="#FF9BD8"/></g><mask id="mask9" mask-type="alpha" maskUnits="userSpaceOnUse" x="18" y="72" width="69" height="69"><path d="M42.9709 73.5404C61.1172 68.3371 80.0459 78.8294 85.2493 96.9757C90.4526 115.122 79.9603 134.051 61.814 139.254C43.6676 144.458 24.7389 133.965 19.5356 115.819C14.3322 97.6725 24.8245 78.7438 42.9709 73.5404Z" fill="white"/></mask><g mask="url(#mask9)"><path d="M42.9709 73.5404C61.1172 68.3371 80.0459 78.8294 85.2493 96.9757C90.4526 115.122 79.9603 134.051 61.814 139.254C43.6676 144.458 24.7389 133.965 19.5356 115.819C14.3322 97.6725 24.8245 78.7438 42.9709 73.5404Z" fill="#E18E70"/><path fill-rule="evenodd" clip-rule="evenodd" d="M67.1521 64.0736L67.0283 64.1186C62.2595 65.5766 57.7598 95.2565 23.5876 104.443C21.1409 105.101 17.5378 104.911 16.3558 104.426C11.8157 102.565 19.8418 101.088 17.3948 91.7446L17.2818 91.3334C16.3453 88.0797 16.3429 84.0785 17.2747 79.3298L18.508 78.5135C28.8763 71.6809 36.3251 67.537 40.8546 66.0818L41.1176 65.9993C59.2001 60.4709 68.9381 63.2955 67.1521 64.0736Z" fill="#3D3D3D"/></g><path fill-rule="evenodd" clip-rule="evenodd" d="M43.6022 112.028C49.2831 110.399 52.5679 104.473 50.9389 98.792C49.3099 93.1111 43.3841 89.8264 37.7032 91.4554C32.0223 93.0843 28.7375 99.0102 30.3665 104.691C31.9955 110.372 37.9213 113.657 43.6022 112.028Z" fill="white"/><path fill-rule="evenodd" clip-rule="evenodd" d="M62.8097 106.52C68.4906 104.891 71.7754 98.9649 70.1464 93.284C68.5174 87.6031 62.5916 84.3183 56.9107 85.9473C51.2298 87.5763 47.9451 93.5021 49.574 99.183C51.203 104.864 57.1288 108.149 62.8097 106.52Z" fill="white"/><path fill-rule="evenodd" clip-rule="evenodd" d="M62.3321 104.851C67.0917 103.486 69.8438 98.5211 68.479 93.7615C67.1142 89.0018 62.1493 86.2497 57.3896 87.6145C52.6299 88.9793 49.8779 93.9442 51.2427 98.7039C52.6075 103.464 57.5724 106.216 62.3321 104.851Z" fill="#3D3D3D"/><path fill-rule="evenodd" clip-rule="evenodd" d="M59.5519 96.4508L60.1742 96.0006C62.6589 94.2229 64.6513 92.9517 63.1016 90.8186C61.4657 88.567 57.9746 88.3147 55.3041 90.2549C52.6335 92.1952 51.7948 95.5934 53.4306 97.845C55.0246 100.039 56.9822 98.3345 59.5519 96.4508Z" fill="white"/><path fill-rule="evenodd" clip-rule="evenodd" d="M64.804 100.531C66.0324 100.179 66.7426 98.8978 66.3904 97.6694C66.0381 96.4411 64.7569 95.7309 63.5286 96.0831C62.3003 96.4354 61.5901 97.7166 61.9423 98.9449C62.2945 100.173 63.5757 100.883 64.804 100.531Z" fill="white"/><path fill-rule="evenodd" clip-rule="evenodd" d="M43.1245 110.359C47.8842 108.994 50.6363 104.029 49.2715 99.2693C47.9067 94.5096 42.9418 91.7575 38.1821 93.1223C33.4224 94.4871 30.6704 99.452 32.0352 104.212C33.4 108.971 38.3649 111.723 43.1245 110.359Z" fill="#3D3D3D"/><path fill-rule="evenodd" clip-rule="evenodd" d="M40.1428 102.105L40.9667 101.507C43.4514 99.7293 45.4438 98.458 43.8941 96.325C42.2582 94.0734 38.7671 93.821 36.0966 95.7613C33.426 97.7016 32.5872 101.1 34.2231 103.351C35.7751 105.487 37.6719 103.928 40.1428 102.105Z" fill="white"/><path fill-rule="evenodd" clip-rule="evenodd" d="M45.5965 106.04C46.8248 105.688 47.535 104.407 47.1828 103.178C46.8306 101.95 45.5494 101.24 44.3211 101.592C43.0928 101.944 42.3825 103.225 42.7348 104.454C43.087 105.682 44.3682 106.392 45.5965 106.04Z" fill="white"/><path d="M71.9599 94.8999C64.7824 97.2934 59.5974 102.182 56.5902 109.359C55.8232 111.19 56.6853 113.295 58.5156 114.062C60.3458 114.829 62.4513 113.967 63.2182 112.137C65.4325 106.852 69.0425 103.448 74.2333 101.717C76.1159 101.089 77.1331 99.0544 76.5053 97.1718C75.8775 95.2893 73.8425 94.2721 71.9599 94.8999Z" fill="#E18E70"/><path fill-rule="evenodd" clip-rule="evenodd" d="M53.8613 111.316C55.4432 110.863 56.3548 109.202 55.8974 107.607C55.44 106.012 51.4939 103.061 51.4939 103.061L51.3413 103.471C50.9198 104.632 49.7946 107.944 50.1688 109.25C50.6262 110.845 52.2794 111.77 53.8613 111.316Z" fill="#9E4D31"/><mask id="mask10" mask-type="alpha" maskUnits="userSpaceOnUse" x="49" y="111" width="14" height="18"><path d="M50.4934 113.984C51.805 114.537 53.1883 114.605 54.6434 114.188C56.1251 113.763 57.291 112.947 58.141 111.74C58.4754 111.265 59.1314 111.151 59.6063 111.485C59.8026 111.623 59.9457 111.824 60.0118 112.055L62.5619 120.948C63.429 123.972 61.6804 127.127 58.6562 127.994C55.6319 128.861 52.4773 127.113 51.6101 124.088L49.0738 115.243C48.9136 114.685 49.2364 114.102 49.7948 113.942C50.0256 113.876 50.2722 113.891 50.4934 113.984Z" fill="white"/></mask><g mask="url(#mask10)"><path d="M50.4934 113.984C51.805 114.537 53.1883 114.605 54.6434 114.188C56.1251 113.763 57.291 112.947 58.141 111.74C58.4754 111.265 59.1314 111.151 59.6063 111.485C59.8026 111.623 59.9457 111.824 60.0118 112.055L62.5619 120.948C63.429 123.972 61.6804 127.127 58.6562 127.994C55.6319 128.861 52.4773 127.113 51.6101 124.088L49.0738 115.243C48.9136 114.685 49.2364 114.102 49.7948 113.942C50.0256 113.876 50.2722 113.891 50.4934 113.984Z" fill="#881B1B"/><path fill-rule="evenodd" clip-rule="evenodd" d="M59.8639 132.206C62.7951 131.365 64.4899 128.307 63.6494 125.376C62.8089 122.445 59.7513 120.75 56.8201 121.591C53.889 122.431 52.1941 125.489 53.0346 128.42C53.8751 131.351 56.9327 133.046 59.8639 132.206Z" fill="#B12E2E"/></g><path fill-rule="evenodd" clip-rule="evenodd" d="M12.5321 93.0378L13.0033 93.0467C20.4651 93.254 22.8288 88.7301 25.5342 85.3701C27.3378 83.1301 30.2852 84.1746 34.3763 88.5037L27.1706 96.6923L14.944 96.9698L14.0599 96.574C8.81293 94.1767 8.30365 92.9979 12.5321 93.0378Z" fill="#3D3D3D"/><path d="M7.49471 92.1671L29.0133 95.751C30.1535 95.9534 30.767 97.2103 30.2249 98.2331C27.6204 103.147 22.0689 105.875 16.4489 104.877C10.829 103.879 6.53845 99.404 5.76009 93.8889C5.59809 92.7411 6.35454 91.9647 7.49471 92.1671Z" fill="#3D3D3D"/><path fill-rule="evenodd" clip-rule="evenodd" d="M55.5165 143.415L80.2783 156.581C84.267 158.702 85.7812 163.655 83.6603 167.643C81.5395 171.632 76.5868 173.146 72.5981 171.025L47.8363 157.859C43.8476 155.738 42.3334 150.786 44.4542 146.797C46.575 142.808 51.5278 141.294 55.5165 143.415Z" fill="#1CB0F6"/><path fill-rule="evenodd" clip-rule="evenodd" d="M69.897 160.063L81.5822 139.824C83.841 135.911 88.8436 134.571 92.7558 136.83C96.6681 139.088 98.0085 144.091 95.7498 148.003L84.0646 168.243C81.8058 172.155 76.8032 173.495 72.891 171.237C68.9787 168.978 67.6383 163.975 69.897 160.063Z" fill="#1CB0F6"/><path fill-rule="evenodd" clip-rule="evenodd" d="M94.4172 161.612L90.3471 138.598C89.5604 134.15 92.5287 129.906 96.9772 129.119C101.426 128.333 105.67 131.301 106.456 135.749L110.526 158.763C111.313 163.211 108.345 167.455 103.896 168.242C99.4479 169.029 95.204 166.06 94.4172 161.612Z" fill="#1CB0F6"/><path fill-rule="evenodd" clip-rule="evenodd" d="M92.8466 113.738C99.6228 113.738 105.116 119.231 105.116 126.007C105.116 132.784 99.6228 138.277 92.8466 138.277C86.0704 138.277 80.5771 132.784 80.5771 126.007C80.5771 119.231 86.0704 113.738 92.8466 113.738Z" fill="#E18E70"/><path fill-rule="evenodd" clip-rule="evenodd" d="M99.8573 117.243C106.634 117.243 112.127 122.736 112.127 129.512C112.127 136.289 106.634 141.782 99.8573 141.782C93.0811 141.782 87.5879 136.289 87.5879 129.512C87.5879 122.736 93.0811 117.243 99.8573 117.243Z" fill="#E18E70"/><path fill-rule="evenodd" clip-rule="evenodd" d="M550.684 280.494C550.684 277.894 552.792 275.785 555.392 275.785H579.459C582.059 275.785 584.167 277.894 584.167 280.494C584.167 283.095 582.059 285.203 579.459 285.203H555.392C552.792 285.203 550.684 283.095 550.684 280.494Z" fill="#FF9500"/><path d="M566.903 111.486C575.282 111.486 582.075 104.732 582.075 96.4008C582.075 88.0695 575.282 81.3157 566.903 81.3157C558.523 81.3157 551.73 88.0695 551.73 96.4008C551.73 104.732 558.523 111.486 566.903 111.486Z" fill="#3D3D3D"/><mask id="mask11" mask-type="alpha" maskUnits="userSpaceOnUse" x="513" y="176" width="108" height="93"><path d="M559.665 176.699H575.186C600.468 176.699 620.964 197.195 620.964 222.477V262.746C620.964 265.789 618.498 268.256 615.455 268.256H519.396C516.353 268.256 513.886 265.789 513.886 262.746V222.477C513.886 197.195 534.382 176.699 559.665 176.699Z" fill="white"/></mask><g mask="url(#mask11)"><path d="M559.665 176.699H575.186C600.468 176.699 620.964 197.195 620.964 222.477V262.746C620.964 265.789 618.498 268.256 615.455 268.256H519.396C516.353 268.256 513.886 265.789 513.886 262.746V222.477C513.886 197.195 534.382 176.699 559.665 176.699Z" fill="#FFB100"/><path fill-rule="evenodd" clip-rule="evenodd" d="M494.528 182.965H549.462V248.188C549.462 250.5 547.588 252.373 545.277 252.373H494.528C492.217 252.373 490.343 250.5 490.343 248.188V187.15C490.343 184.838 492.217 182.965 494.528 182.965Z" fill="#FF9500"/><path fill-rule="evenodd" clip-rule="evenodd" d="M583.644 182.965H638.578C640.889 182.965 642.763 184.838 642.763 187.15V248.188C642.763 250.5 640.889 252.373 638.578 252.373H587.829C585.517 252.373 583.644 250.5 583.644 248.188V182.965Z" fill="#FF9500"/></g><path d="M566.155 214.716C568.532 214.716 570.459 212.789 570.459 210.412C570.459 208.035 568.532 206.107 566.155 206.107C563.778 206.107 561.851 208.035 561.851 210.412C561.851 212.789 563.778 214.716 566.155 214.716Z" fill="white"/><path fill-rule="evenodd" clip-rule="evenodd" d="M558.792 174.21C563.945 174.21 568.123 178.387 568.123 183.54V189.844C568.123 194.997 563.945 199.174 558.792 199.174C553.64 199.174 549.462 194.997 549.462 189.844V183.54C549.462 178.387 553.64 174.21 558.792 174.21Z" fill="white"/><path fill-rule="evenodd" clip-rule="evenodd" d="M574.314 174.21C579.467 174.21 583.644 178.387 583.644 183.54V189.844C583.644 194.997 579.467 199.174 574.314 199.174C569.161 199.174 564.984 194.997 564.984 189.844V183.54C564.984 178.387 569.161 174.21 574.314 174.21Z" fill="white"/><mask id="mask12" mask-type="alpha" maskUnits="userSpaceOnUse" x="517" y="109" width="100" height="63"><path d="M548.709 109.207H584.865C602.171 109.207 616.2 123.236 616.2 140.541C616.2 157.847 602.171 171.876 584.865 171.876H548.709C531.404 171.876 517.375 157.847 517.375 140.541C517.375 123.236 531.404 109.207 548.709 109.207Z" fill="white"/></mask><g mask="url(#mask12)"><path d="M548.709 109.207H584.865C602.171 109.207 616.2 123.236 616.2 140.541C616.2 157.847 602.171 171.876 584.865 171.876H548.709C531.404 171.876 517.375 157.847 517.375 140.541C517.375 123.236 531.404 109.207 548.709 109.207Z" fill="#3D3D3D"/><path fill-rule="evenodd" clip-rule="evenodd" d="M493.959 139.75H637.548V167.813H493.959V139.75Z" fill="#CAC9C9"/></g><path fill-rule="evenodd" clip-rule="evenodd" d="M567.164 115.297C588.594 115.297 605.966 132.669 605.966 154.099V185.512H528.361V154.099C528.361 132.669 545.733 115.297 567.164 115.297Z" fill="#FFCBA3"/><path fill-rule="evenodd" clip-rule="evenodd" d="M540.309 112.51H596.987V121.752H540.309V112.51Z" fill="#3D3D3D"/><path fill-rule="evenodd" clip-rule="evenodd" d="M567.159 154.928C569.326 154.928 571.083 153.153 571.083 150.963C571.083 148.772 567.159 143.593 567.159 143.593L566.809 144.069C565.847 145.399 563.235 149.176 563.235 150.963C563.235 153.153 564.992 154.928 567.159 154.928Z" fill="#E89665"/><path d="M572.658 151.123C573.78 149.879 575.556 149.463 577.114 150.077C579.103 150.862 580.116 153.059 579.456 155.065L579.376 155.287L579.171 155.807L579.671 156.056C581.095 156.765 581.959 158.243 581.894 159.817L581.875 160.066C581.646 162.273 579.671 163.875 577.465 163.646C576.85 163.582 576.404 163.032 576.468 162.417C576.527 161.85 577 161.425 577.556 161.414L577.697 161.42C578.673 161.521 579.548 160.812 579.649 159.835C579.72 159.154 579.394 158.499 578.821 158.142L578.673 158.059L577.255 157.353C576.778 157.115 576.541 156.58 576.668 156.077L576.712 155.94L577.294 154.466C577.654 153.552 577.206 152.52 576.292 152.159C575.656 151.908 574.937 152.046 574.439 152.502L574.32 152.622C573.905 153.081 573.198 153.117 572.739 152.703C572.28 152.289 572.244 151.582 572.658 151.123Z" fill="#E89665"/><path d="M572.713 170.881C573.113 170.625 573.646 170.742 573.902 171.143C574.158 171.543 574.041 172.075 573.641 172.332C568.998 175.303 564.276 175.303 559.633 172.332C559.233 172.075 559.116 171.543 559.372 171.143C559.628 170.742 560.161 170.625 560.561 170.881C564.638 173.491 568.636 173.491 572.713 170.881Z" fill="#F7B286"/><path d="M543.054 141.147C542.6 141.286 542.344 141.768 542.483 142.222C542.622 142.677 543.103 142.933 543.558 142.794C545.078 142.329 546.554 142.304 548.007 142.721L548.242 142.793L547.826 143.087C546.429 144.101 545.298 145.171 544.435 146.302L544.184 146.643C543.909 147.031 544.001 147.568 544.389 147.843C544.777 148.118 545.314 148.026 545.589 147.638C546.652 146.136 548.293 144.712 550.518 143.374C551.093 143.029 551.069 142.188 550.476 141.875C548.087 140.615 545.596 140.37 543.054 141.147Z" fill="#F3A577"/><path fill-rule="evenodd" clip-rule="evenodd" d="M530.028 120.513L541.398 117.145C543.285 116.586 545.269 117.663 545.828 119.55C545.926 119.879 545.975 120.22 545.975 120.563V131.677C545.975 136.194 542.314 139.855 537.797 139.855H530.087C525.57 139.855 521.909 136.194 521.909 131.677V131.387C521.909 126.364 525.212 121.94 530.028 120.513Z" fill="#3D3D3D"/><path fill-rule="evenodd" clip-rule="evenodd" d="M592.973 116.348L602.868 119.413C607.925 120.979 611.374 125.657 611.374 130.952V131.678C611.374 136.195 607.712 139.856 603.195 139.856H596.532C592.015 139.856 588.354 136.195 588.354 131.678V119.753C588.354 117.785 589.95 116.189 591.918 116.189C592.276 116.189 592.631 116.243 592.973 116.348Z" fill="#3D3D3D"/><path d="M555.814 126.325C563.67 124.03 571.239 124.03 578.456 126.345C579.831 126.786 580.589 128.259 580.147 129.635C579.706 131.011 578.233 131.768 576.857 131.327C570.66 129.338 564.156 129.338 557.281 131.347C555.895 131.752 554.442 130.956 554.037 129.57C553.632 128.183 554.427 126.73 555.814 126.325Z" fill="#3D3D3D"/><path fill-rule="evenodd" clip-rule="evenodd" d="M617.658 175.188C627.174 175.188 634.888 182.902 634.888 192.418V199.547C634.888 209.063 627.174 216.777 617.658 216.777C608.143 216.777 600.429 209.063 600.429 199.547V192.418C600.429 182.902 608.143 175.188 617.658 175.188Z" fill="#FFB100"/><path fill-rule="evenodd" clip-rule="evenodd" d="M619.441 171.623H624.194C630.1 171.623 634.888 176.411 634.888 182.318V188.259C634.888 194.165 630.1 198.953 624.194 198.953H619.441C613.535 198.953 608.747 194.165 608.747 188.259V182.318C608.747 176.411 613.535 171.623 619.441 171.623Z" fill="#FFCBA3"/><path fill-rule="evenodd" clip-rule="evenodd" d="M613.5 164.493C616.125 164.493 618.253 166.621 618.253 169.246V187.07C618.253 189.695 616.125 191.823 613.5 191.823C610.875 191.823 608.747 189.695 608.747 187.07V169.246C608.747 166.621 610.875 164.493 613.5 164.493Z" fill="#FFCBA3"/><path fill-rule="evenodd" clip-rule="evenodd" d="M516.657 175.188C526.173 175.188 533.887 182.902 533.887 192.418V199.547C533.887 209.063 526.173 216.777 516.657 216.777C507.141 216.777 499.427 209.063 499.427 199.547V192.418C499.427 182.902 507.141 175.188 516.657 175.188Z" fill="#FFB100"/><path fill-rule="evenodd" clip-rule="evenodd" d="M510.122 171.845H514.875C520.781 171.845 525.569 176.633 525.569 182.54V188.481C525.569 194.387 520.781 199.175 514.875 199.175H510.122C504.215 199.175 499.427 194.387 499.427 188.481V182.54C499.427 176.633 504.215 171.845 510.122 171.845Z" fill="#FFCBA3"/><path fill-rule="evenodd" clip-rule="evenodd" d="M520.815 164.493C523.44 164.493 525.568 166.621 525.568 169.246V187.07C525.568 189.695 523.44 191.823 520.815 191.823C518.19 191.823 516.062 189.695 516.062 187.07V169.246C516.062 166.621 518.19 164.493 520.815 164.493Z" fill="#FFCBA3"/><path d="M569.119 144.392C569.834 140.521 573.552 137.963 577.423 138.678C579.116 138.991 580.638 139.905 581.709 141.253C582.117 141.767 582.032 142.515 581.518 142.923C581.004 143.331 580.256 143.246 579.848 142.732C579.134 141.833 578.12 141.223 576.991 141.015C574.411 140.538 571.933 142.244 571.456 144.824C571.337 145.469 570.717 145.896 570.072 145.777C569.426 145.658 569 145.038 569.119 144.392Z" fill="#CC7C4D"/><path d="M552.688 141.255C555.136 138.173 559.62 137.659 562.702 140.108C564.05 141.178 564.965 142.701 565.278 144.394C565.397 145.039 564.97 145.659 564.325 145.778C563.68 145.897 563.06 145.471 562.941 144.826C562.732 143.697 562.122 142.682 561.224 141.968C559.169 140.336 556.181 140.679 554.548 142.733C554.14 143.247 553.393 143.333 552.879 142.924C552.365 142.516 552.279 141.769 552.688 141.255Z" fill="#CC7C4D"/><path d="M591.543 141.147C591.998 141.286 592.254 141.768 592.115 142.222C591.976 142.677 591.495 142.933 591.04 142.794C589.52 142.329 588.043 142.304 586.591 142.721L586.355 142.793L586.771 143.087C588.169 144.101 589.3 145.171 590.163 146.302L590.414 146.643C590.688 147.031 590.596 147.568 590.208 147.843C589.82 148.118 589.283 148.026 589.008 147.638C587.945 146.136 586.304 144.712 584.079 143.374C583.505 143.029 583.528 142.188 584.121 141.875C586.511 140.615 589.002 140.37 591.543 141.147Z" fill="#F3A577"/><path d="M199.132 110.859L194.357 121.099C192.119 125.898 194.195 131.602 198.994 133.84L209.234 138.615C214.033 140.853 219.737 138.776 221.975 133.978L226.75 123.737C228.988 118.939 226.912 113.235 222.113 110.997L211.872 106.222C207.074 103.984 201.37 106.06 199.132 110.859Z" fill="#FFC6B7"/><path fill-rule="evenodd" clip-rule="evenodd" d="M194.581 129.804L223.725 120.334L227.957 133.36L198.813 142.829L194.581 129.804Z" fill="#FFC6B7"/><path fill-rule="evenodd" clip-rule="evenodd" d="M274.675 162.553C274.675 171.015 267.815 177.875 259.353 177.875H223.573C215.111 177.875 208.251 171.015 208.251 162.553C208.251 154.091 215.111 147.231 223.573 147.231H259.353C267.815 147.231 274.675 154.091 274.675 162.553Z" fill="#FF4B4B"/><path fill-rule="evenodd" clip-rule="evenodd" d="M198.295 141.176L227.439 131.706L235.613 156.861C238.228 164.909 233.823 173.553 225.775 176.168C217.727 178.783 209.083 174.379 206.468 166.331L198.295 141.176Z" fill="#FF4B4B"/><path fill-rule="evenodd" clip-rule="evenodd" d="M266.051 176.748C281.571 176.748 294.152 164.167 294.152 148.647C294.152 148.118 294.137 147.593 294.109 147.071H237.993C237.964 147.593 237.95 148.118 237.95 148.647C237.95 164.167 250.531 176.748 266.051 176.748Z" fill="#FF4B4B"/><path d="M303.234 109.005L297.471 106.318C295.411 105.357 292.963 106.248 292.003 108.308L289.316 114.071C288.355 116.13 289.246 118.578 291.306 119.539L297.069 122.226C299.128 123.186 301.576 122.295 302.536 120.236L305.224 114.473C306.184 112.413 305.293 109.965 303.234 109.005Z" fill="#FFC6B7"/><path d="M276.362 97.0893C273.892 94.039 274.362 89.5639 277.413 87.0938C280.463 84.6237 284.938 85.0941 287.408 88.1444L303.65 108.202C306.12 111.252 305.65 115.727 302.6 118.197C299.549 120.667 295.074 120.197 292.604 117.147L276.362 97.0893Z" fill="#FFC6B7"/><path fill-rule="evenodd" clip-rule="evenodd" d="M272.393 80.959C269.343 83.4291 268.872 87.9043 271.342 90.9545L289.703 113.628L300.749 104.683L282.388 82.0096C279.918 78.9593 275.443 78.489 272.393 80.959Z" fill="#2FE3FF"/><path d="M195.834 92.8723L195.467 99.2205C195.337 101.489 193.391 103.222 191.123 103.091L184.775 102.725C182.506 102.594 180.773 100.649 180.904 98.3803L181.27 92.0321C181.401 89.7635 183.346 88.0306 185.615 88.1615L191.963 88.5277C194.232 88.6586 195.965 90.6037 195.834 92.8723Z" fill="#FFC6B7"/><path d="M209.606 114.31C213.094 116.111 217.381 114.743 219.181 111.255C220.981 107.767 219.614 103.48 216.126 101.68L193.192 89.842C189.704 88.0417 185.417 89.4097 183.617 92.8974C181.817 96.3852 183.185 100.672 186.672 102.472L209.606 114.31Z" fill="#FFC6B7"/><path fill-rule="evenodd" clip-rule="evenodd" d="M226.207 114.926C224.406 118.414 220.119 119.782 216.632 117.981L190.706 104.599L197.226 91.9691L223.151 105.351C226.639 107.151 228.007 111.438 226.207 114.926Z" fill="#2FE3FF"/><path fill-rule="evenodd" clip-rule="evenodd" d="M211.917 98.7637L280.106 73.9452C283.794 72.6027 287.872 74.5044 289.215 78.1927L289.407 78.72C290.749 82.4082 288.847 86.4864 285.159 87.8289L216.971 112.647C213.282 113.99 209.204 112.088 207.862 108.4L207.67 107.873C206.328 104.184 208.229 100.106 211.917 98.7637Z" fill="#2FE3FF"/><path fill-rule="evenodd" clip-rule="evenodd" d="M222.354 29.2873C228.081 27.2029 234.416 30.1683 236.504 35.9054L237.071 37.4644L216.334 45.0123L215.766 43.4533C213.678 37.7162 216.627 31.3717 222.354 29.2873Z" fill="#FF9600"/><path d="M214.993 43.5098C221.107 41.2848 224.288 34.6019 222.098 28.5845C219.908 22.5671 213.175 19.4927 207.061 21.7177C200.945 23.9438 197.764 30.6267 199.954 36.6441C202.144 42.6615 208.877 45.7359 214.993 43.5098Z" fill="#FF9600"/><mask id="mask13" mask-type="alpha" maskUnits="userSpaceOnUse" x="193" y="27" width="105" height="128"><path d="M246.21 31.9489L206.844 46.2771C199.467 48.9619 195.664 57.1183 198.349 64.4949L226.174 140.943C228.858 148.32 237.015 152.123 244.391 149.438L283.758 135.11C291.134 132.425 294.938 124.269 292.253 116.892L264.428 40.444C261.743 33.0674 253.587 29.264 246.21 31.9489Z" fill="white"/></mask><g mask="url(#mask13)"><path d="M246.21 31.9489L206.844 46.2771C199.467 48.9619 195.664 57.1183 198.349 64.4949L226.174 140.943C228.858 148.32 237.015 152.123 244.391 149.438L283.758 135.11C291.134 132.425 294.938 124.269 292.253 116.892L264.428 40.444C261.743 33.0674 253.587 29.264 246.21 31.9489Z" fill="#FFC6B7"/><path opacity="0.33152" d="M280.907 -0.781824L245.056 12.2671C240.688 13.8568 238.436 18.6862 240.026 23.0539L249.237 48.3609C250.827 52.7286 255.656 54.9806 260.024 53.3909L295.875 40.342C300.243 38.7523 302.495 33.9229 300.905 29.5552L291.694 4.24817C290.105 -0.119531 285.275 -2.37154 280.907 -0.781824Z" fill="#FF9600"/><path d="M292.242 79.6783L198.043 113.964L231.241 205.174L325.44 170.889L292.242 79.6783Z" fill="#0084C2"/><path d="M288.979 70.7161L194.781 105.001L203.928 130.133L298.126 95.8474L288.979 70.7161Z" fill="#2FE3FF"/></g><path d="M270.466 59.1434C273.717 57.96 275.394 54.3647 274.21 51.1132C273.027 47.8617 269.431 46.1852 266.18 47.3686C262.928 48.5521 261.252 52.1473 262.435 55.3989C263.619 58.6504 267.214 60.3269 270.466 59.1434Z" fill="#FFC6B7"/><path d="M229.784 100.322C229.413 99.3025 228.286 98.777 227.267 99.1479C226.248 99.5189 225.722 100.646 226.093 101.665L229.995 112.385C230.366 113.404 231.493 113.93 232.512 113.559C233.531 113.188 234.056 112.061 233.685 111.042L229.784 100.322Z" fill="white"/><path d="M241.031 96.2283C240.66 95.2092 239.533 94.6838 238.514 95.0547C237.495 95.4256 236.969 96.5525 237.34 97.5716L241.242 108.292C241.613 109.311 242.74 109.837 243.759 109.466C244.778 109.095 245.303 107.968 244.933 106.949L241.031 96.2283Z" fill="white"/><path fill-rule="evenodd" clip-rule="evenodd" d="M210.74 52.4223C215.317 50.7566 220.377 53.1162 222.043 57.6926L223.877 62.7329C225.543 67.3093 223.183 72.3695 218.607 74.0351C214.03 75.7008 208.97 73.3412 207.305 68.7648L205.47 63.7245C203.804 59.1481 206.164 54.0879 210.74 52.4223Z" fill="white"/><path fill-rule="evenodd" clip-rule="evenodd" d="M214.351 54.9854C216.406 54.2376 218.677 55.2969 219.425 57.3514L221.126 62.0239C221.874 64.0785 220.814 66.3502 218.76 67.098C216.705 67.8458 214.433 66.7865 213.686 64.732L212.101 60.3762L212.278 60.3175C213.928 59.7169 214.779 57.8925 214.178 56.2424C214.053 55.8976 213.874 55.5877 213.654 55.3186C213.871 55.1874 214.104 55.0754 214.351 54.9854Z" fill="#3D3D3D"/><path fill-rule="evenodd" clip-rule="evenodd" d="M230.247 45.3228C225.671 46.9885 223.311 52.0487 224.977 56.6251L226.811 61.6654C228.477 66.2418 233.537 68.6014 238.113 66.9357C242.69 65.27 245.049 60.2098 243.384 55.6335L241.549 50.5932C239.883 46.0168 234.823 43.6572 230.247 45.3228Z" fill="white"/><path fill-rule="evenodd" clip-rule="evenodd" d="M231.744 48.6553C231.499 48.7446 231.268 48.8557 231.052 48.9855C231.273 49.2545 231.453 49.5647 231.578 49.9099C232.179 51.5599 231.328 53.3843 229.678 53.9849C229.616 54.0073 229.555 54.0277 229.493 54.046L231.079 58.4019C231.827 60.4564 234.098 61.5158 236.153 60.768C238.207 60.0202 239.267 57.7484 238.519 55.6939L236.818 51.0214C236.071 48.9668 233.799 47.9075 231.744 48.6553Z" fill="#3D3D3D"/><path d="M248.974 59.1483C240.363 61.4073 233.807 66.1815 229.307 73.4708" stroke="#FFC6B7" stroke-width="2.40095"/><path d="M228.32 74.6297C219.318 72.167 210.909 72.237 203.093 74.8396" stroke="#FFC6B7" stroke-width="1.60483"/><path d="M242.002 69.2458C241.765 71.2972 239.276 74.1418 237.167 74.9094" stroke="white" stroke-width="3.98061" stroke-linecap="round" stroke-linejoin="round"/><path fill-rule="evenodd" clip-rule="evenodd" d="M227.99 74.5644C229.852 74.1345 231.012 72.2733 230.581 70.4073C230.15 68.5413 225.76 64.9063 225.76 64.9063C225.76 64.9063 223.408 70.0979 223.838 71.9639C224.269 73.83 226.128 74.9942 227.99 74.5644Z" fill="#EE9583"/><path fill-rule="evenodd" clip-rule="evenodd" d="M226.124 155.704C226.545 153.313 228.825 151.717 231.215 152.138L243.739 154.347C246.13 154.768 247.726 157.048 247.304 159.438C246.883 161.829 244.603 163.425 242.213 163.003L229.689 160.795C227.298 160.373 225.702 158.094 226.124 155.704Z" fill="#535353"/><path fill-rule="evenodd" clip-rule="evenodd" d="M246.082 144.939C246.504 142.549 248.783 140.953 251.173 141.374L263.698 143.583C266.088 144.004 267.684 146.284 267.263 148.674C266.841 151.064 264.562 152.661 262.171 152.239L249.647 150.031C247.257 149.609 245.661 147.33 246.082 144.939Z" fill="#535353"/><path d="M348.144 203.277C332.624 203.277 320.043 190.695 320.043 175.176C320.043 159.656 332.624 147.074 348.144 147.074C363.664 147.074 376.245 159.656 376.245 175.176C376.245 190.695 363.664 203.277 348.144 203.277Z" fill="#FF4B4B"/><path d="M307.771 214.361C307.771 209.098 303.504 204.832 298.241 204.832C292.979 204.832 288.712 209.098 288.712 214.361V261.423C288.712 266.686 292.979 270.952 298.241 270.952C303.504 270.952 307.771 266.686 307.771 261.423V214.361Z" fill="#FFC6B7"/><path d="M325.485 214.361C325.485 209.098 321.219 204.832 315.956 204.832C310.694 204.832 306.427 209.098 306.427 214.361V261.423C306.427 266.686 310.694 270.952 315.956 270.952C321.219 270.952 325.485 266.686 325.485 261.423V214.361Z" fill="#FFC6B7"/><path d="M310.307 216.889H286.776C286.025 216.889 285.415 217.498 285.415 218.25V231.085C285.415 231.837 286.025 232.446 286.776 232.446H310.307C311.059 232.446 311.669 231.837 311.669 231.085V218.25C311.669 217.498 311.059 216.889 310.307 216.889Z" fill="#D22121"/><path fill-rule="evenodd" clip-rule="evenodd" d="M361.723 128.503C361.976 133.494 360.052 138.039 356.818 141.273C353.774 144.317 349.569 146.2 344.923 146.2H267.718C263.073 146.2 258.868 144.317 255.823 141.273C252.589 138.039 250.666 133.494 250.919 128.503H361.723Z" fill="#FFB100" stroke="#FFB100" stroke-width="0.715182" stroke-linejoin="round"/><path d="M328.588 216.889H305.057C304.305 216.889 303.695 217.498 303.695 218.25V231.085C303.695 231.837 304.305 232.446 305.057 232.446H328.588C329.339 232.446 329.949 231.837 329.949 231.085V218.25C329.949 217.498 329.339 216.889 328.588 216.889Z" fill="#D22121"/><path fill-rule="evenodd" clip-rule="evenodd" d="M280.942 53.3379H332.282C341.304 53.3379 348.618 60.6516 348.618 69.6735V130.543H264.606V69.6735C264.606 60.6516 271.92 53.3379 280.942 53.3379Z" fill="#FFB100"/><mask id="mask14" mask-type="alpha" maskUnits="userSpaceOnUse" x="257" y="146" width="100" height="78"><path d="M274.985 146.88H339.213C348.772 146.88 356.521 154.629 356.521 164.188C356.521 165.472 356.378 166.752 356.095 168.005L346.687 209.622C344.903 217.511 337.894 223.113 329.805 223.113H284.393C276.305 223.113 269.295 217.511 267.511 209.622L258.103 168.005C255.995 158.681 261.845 149.414 271.169 147.306C272.421 147.023 273.701 146.88 274.985 146.88Z" fill="white"/></mask><g mask="url(#mask14)"><path d="M274.985 146.88H339.213C348.772 146.88 356.521 154.629 356.521 164.188C356.521 165.472 356.378 166.752 356.095 168.005L346.687 209.622C344.903 217.511 337.894 223.113 329.805 223.113H284.393C276.305 223.113 269.295 217.511 267.511 209.622L258.103 168.005C255.995 158.681 261.845 149.414 271.169 147.306C272.421 147.023 273.701 146.88 274.985 146.88Z" fill="#FF4B4B"/><path d="M369.615 198.355H243.598V241.333H369.615V198.355Z" fill="#D22121"/></g><mask id="mask15" mask-type="alpha" maskUnits="userSpaceOnUse" x="270" y="64" width="72" height="83"><path d="M285.609 64.6182H326.254C334.739 64.6182 341.617 71.4965 341.617 79.9814V146.491H270.246V79.9814C270.246 71.4965 277.124 64.6182 285.609 64.6182Z" fill="white"/></mask><g mask="url(#mask15)"><path d="M285.609 64.6182H326.254C334.739 64.6182 341.617 71.4965 341.617 79.9814V146.491H270.246V79.9814C270.246 71.4965 277.124 64.6182 285.609 64.6182Z" fill="#FFC6B7"/><path d="M277.635 69.7725C277.635 65.3152 274.022 61.7019 269.565 61.7019C265.107 61.7019 261.494 65.3152 261.494 69.7725V81.2463C261.494 85.7035 265.107 89.3169 269.565 89.3169C274.022 89.3169 277.635 85.7035 277.635 81.2463V69.7725Z" fill="#FFB100"/><path d="M351.146 69.7725C351.146 65.3152 347.532 61.7019 343.075 61.7019C338.618 61.7019 335.004 65.3152 335.004 69.7725V81.2463C335.004 85.7035 338.618 89.3169 343.075 89.3169C347.532 89.3169 351.146 85.7035 351.146 81.2463V69.7725Z" fill="#FFB100"/></g><path d="M302.098 275.36H281.656C278.753 275.36 276.399 277.636 276.399 280.442C276.399 283.249 278.753 285.525 281.656 285.525H302.098C305.001 285.525 307.354 283.249 307.354 280.442C307.354 277.636 305.001 275.36 302.098 275.36Z" fill="#FF4B4B"/><path d="M333.977 275.36H313.535C310.632 275.36 308.278 277.636 308.278 280.442C308.278 283.249 310.632 285.525 313.535 285.525H333.977C336.88 285.525 339.233 283.249 339.233 280.442C339.233 277.636 336.88 275.36 333.977 275.36Z" fill="#FF4B4B"/><path fill-rule="evenodd" clip-rule="evenodd" d="M297.245 74.6396C302.31 74.6396 306.415 78.7449 306.415 83.809V89.3864C306.415 94.4505 302.31 98.5557 297.245 98.5557C292.181 98.5557 288.076 94.4505 288.076 89.3864V83.809C288.076 78.7449 292.181 74.6396 297.245 74.6396Z" fill="white"/><path fill-rule="evenodd" clip-rule="evenodd" d="M299.777 80.0842C302.051 80.0842 303.894 81.9273 303.894 84.2008V89.3712C303.894 91.6447 302.051 93.4877 299.777 93.4877C297.504 93.4877 295.661 91.6447 295.661 89.3712V84.2008C295.661 84.1118 295.663 84.0235 295.669 83.9359C295.824 83.9608 295.984 83.9737 296.147 83.9737C297.812 83.9737 299.161 82.6241 299.161 80.9594C299.161 80.6783 299.123 80.4063 299.051 80.1482C299.286 80.1062 299.529 80.0842 299.777 80.0842Z" fill="#3D3D3D"/><path fill-rule="evenodd" clip-rule="evenodd" d="M318.832 74.6394C313.768 74.6394 309.662 78.7446 309.662 83.8087V89.3862C309.662 94.4502 313.768 98.5555 318.832 98.5555C323.896 98.5555 328.001 94.4502 328.001 89.3862V83.8087C328.001 78.7446 323.896 74.6394 318.832 74.6394Z" fill="white"/><path fill-rule="evenodd" clip-rule="evenodd" d="M316.883 80.0845L316.787 80.0856C316.871 80.3619 316.916 80.6555 316.916 80.9596C316.916 82.6244 315.566 83.9739 313.901 83.9739C313.509 83.9739 313.134 83.8989 312.79 83.7624C312.774 83.9063 312.766 84.0528 312.766 84.201V89.3715C312.766 91.645 314.609 93.488 316.883 93.488C319.156 93.488 321 91.645 321 89.3715V84.201C321 81.9275 319.156 80.0845 316.883 80.0845Z" fill="#3D3D3D"/><path fill-rule="evenodd" clip-rule="evenodd" d="M307.973 103.514C310.229 103.514 312.057 101.686 312.057 99.4318C312.057 97.1773 307.973 91.8455 307.973 91.8455C307.973 91.8455 303.889 97.1773 303.889 99.4318C303.889 101.686 305.718 103.514 307.973 103.514Z" fill="#F3A577"/><path d="M288.527 95.1506C293.259 95.4254 297.019 97.435 299.806 101.179" stroke="#FFC6B7" stroke-width="1.50983"/><path d="M267.038 99.2341C271.388 99.2341 274.914 95.7079 274.914 91.358C274.914 87.0082 271.388 83.4819 267.038 83.4819C262.688 83.4819 259.162 87.0082 259.162 91.358C259.162 95.7079 262.688 99.2341 267.038 99.2341Z" fill="#FFC6B7"/><path d="M345.409 99.2341C349.759 99.2341 353.285 95.7079 353.285 91.358C353.285 87.0082 349.759 83.4819 345.409 83.4819C341.059 83.4819 337.533 87.0082 337.533 91.358C337.533 95.7079 341.059 99.2341 345.409 99.2341Z" fill="#FFC6B7"/><mask id="mask16" mask-type="alpha" maskUnits="userSpaceOnUse" x="284" y="99" width="25" height="20"><path d="M288.049 99.775C291.031 98.4895 294.437 99.57 296.172 102.183C297.279 103.452 298.825 104.591 300.872 104.862C301.091 104.87 301.319 104.875 301.557 104.875L301.666 104.875C305.267 104.934 308.169 107.871 308.169 111.487C308.169 115.138 305.209 118.099 301.557 118.099C293.496 118.099 287.383 114.933 284.595 108.464C283.149 105.111 284.696 101.221 288.049 99.775Z" fill="white"/></mask><g mask="url(#mask16)"><path d="M288.855 99.1073C291.937 98.0866 295.237 99.4599 296.737 102.214C297.729 103.575 299.17 104.844 301.185 105.292C301.403 105.32 301.63 105.344 301.867 105.365L301.976 105.375C305.558 105.747 308.192 108.926 307.877 112.528C307.559 116.166 304.352 118.857 300.714 118.538C292.684 117.836 286.87 114.149 284.656 107.463C283.508 103.996 285.388 100.255 288.855 99.1073Z" fill="#702323"/><path d="M305.153 135.406C311.759 135.406 317.113 130.051 317.113 123.446C317.113 116.841 311.759 111.486 305.153 111.486C298.548 111.486 293.193 116.841 293.193 123.446C293.193 130.051 298.548 135.406 305.153 135.406Z" fill="#B23232"/><path d="M290.667 97.4734H287.944C286.011 97.4734 284.444 99.0406 284.444 100.974V102.724C284.444 104.657 286.011 106.225 287.944 106.225H290.667C292.6 106.225 294.167 104.657 294.167 102.724V100.974C294.167 99.0406 292.6 97.4734 290.667 97.4734Z" fill="white"/><path fill-rule="evenodd" clip-rule="evenodd" d="M293.584 98.2522H299.807C301.74 98.2522 303.308 99.8194 303.308 101.753V102.725C303.308 104.658 301.74 106.226 299.807 106.226H297.084C295.151 106.226 293.584 104.658 293.584 102.725V98.2522Z" fill="white"/></g><path d="M347.451 61.1177H264.801C263.404 61.1177 262.272 62.2496 262.272 63.6458V68.8965C262.272 70.2928 263.404 71.4247 264.801 71.4247H347.451C348.847 71.4247 349.979 70.2928 349.979 68.8965V63.6458C349.979 62.2496 348.847 61.1177 347.451 61.1177Z" fill="#FF4B4B"/><path d="M324.115 51.978C324.115 42.3117 316.279 34.4756 306.612 34.4756C296.946 34.4756 289.11 42.3117 289.11 51.978C289.11 61.6443 296.946 69.4804 306.612 69.4804C316.279 69.4804 324.115 61.6443 324.115 51.978Z" fill="#FFB100"/><path d="M288.251 39.0955L304.981 57.3246C305.858 58.3017 305.531 59.8515 304.334 60.3854C298.584 62.9504 291.725 61.5055 287.399 56.6894C283.073 51.8733 282.356 44.8839 285.502 39.4199C286.157 38.2827 287.374 38.1184 288.251 39.0955Z" fill="#FFB100"/><path d="M343.172 137.546H269.079C267.897 137.546 266.939 138.504 266.939 139.686V147.075C266.939 148.257 267.897 149.215 269.079 149.215H343.172C344.354 149.215 345.311 148.257 345.311 147.075V139.686C345.311 138.504 344.354 137.546 343.172 137.546Z" fill="#FF4B4B"/><path d="M309.529 137.156H304.278V198.262H309.529V137.156Z" fill="white"/><path fill-rule="evenodd" clip-rule="evenodd" d="M304.532 137.156H309.277C309.996 137.156 310.621 137.648 310.789 138.347L313.929 151.377C314.13 152.212 313.616 153.052 312.781 153.254C312.662 153.282 312.539 153.297 312.417 153.297H301.393C300.533 153.297 299.837 152.6 299.837 151.741C299.837 151.618 299.851 151.496 299.88 151.377L303.02 138.347C303.188 137.648 303.814 137.156 304.532 137.156Z" fill="white"/><path fill-rule="evenodd" clip-rule="evenodd" d="M264.607 122.045C264.607 123.588 264.585 127.644 260.134 127.644C262.06 129.527 263.124 130.351 263.324 130.115L265.404 129.015L265.968 124.347C265.061 121.783 264.607 121.016 264.607 122.045Z" fill="#FFB100"/><path fill-rule="evenodd" clip-rule="evenodd" d="M348.618 122.045C348.618 123.588 348.641 127.644 353.091 127.644C351.165 129.527 350.102 130.351 349.901 130.115L347.822 129.015L347.257 124.347C348.165 121.783 348.618 121.016 348.618 122.045Z" fill="#FFB100"/><path fill-rule="evenodd" clip-rule="evenodd" d="M398.52 227.713L410.133 215.26L396.993 203.428C393.514 200.295 393.233 194.936 396.365 191.457C399.498 187.978 404.857 187.697 408.336 190.83L427.591 208.167C427.825 208.378 428.044 208.598 428.249 208.828C431.404 212.046 431.495 217.208 428.39 220.537L410.918 239.274L398.52 227.713Z" fill="#FFAADE"/><path fill-rule="evenodd" clip-rule="evenodd" d="M349.918 226.235L337.067 215.064L348.899 201.923C352.031 198.444 351.75 193.085 348.271 189.952C344.792 186.82 339.433 187.101 336.301 190.58L318.963 209.835C318.752 210.069 318.557 210.311 318.378 210.561C315.577 214.091 316.026 219.235 319.461 222.221L338.796 239.029L349.918 226.235Z" fill="#FFAADE"/><path fill-rule="evenodd" clip-rule="evenodd" d="M364.418 97.7949C375.468 97.7949 384.75 105.364 387.364 115.6L387.341 115.541C389.214 120.66 393.366 122.964 399.663 122.964C399.771 122.964 399.876 122.966 399.976 122.969L400.206 122.964L400.507 122.961C410.545 122.961 418.682 131.099 418.682 141.137C418.682 151.175 410.545 159.312 400.507 159.312C395.71 159.312 391.346 157.454 388.098 154.417L388.098 156.603C388.098 169.682 377.496 180.284 364.418 180.284C352.036 180.284 341.873 170.781 340.826 158.67C333.12 156.564 327.455 149.512 327.455 141.137C327.455 132.794 333.076 125.764 340.737 123.627L340.737 121.476C340.737 108.397 351.339 97.7949 364.418 97.7949Z" fill="#3D3D3D"/><path d="M331.912 162.633C335.628 162.633 338.64 159.62 338.64 155.904C338.64 152.188 335.628 149.176 331.912 149.176C328.196 149.176 325.184 152.188 325.184 155.904C325.184 159.62 328.196 162.633 331.912 162.633Z" fill="#DA8E74"/><path d="M414.051 162.633C417.767 162.633 420.779 159.62 420.779 155.904C420.779 152.188 417.767 149.176 414.051 149.176C410.335 149.176 407.322 152.188 407.322 155.904C407.322 159.62 410.335 162.633 414.051 162.633Z" fill="#DA8E74"/><mask id="mask17" mask-type="alpha" maskUnits="userSpaceOnUse" x="332" y="125" width="82" height="146"><path d="M372.894 125.756C395.19 125.756 413.264 143.831 413.264 166.127V230.441C413.264 252.737 395.19 270.811 372.894 270.811C350.598 270.811 332.523 252.737 332.523 230.441V166.127C332.523 143.831 350.598 125.756 372.894 125.756Z" fill="white"/></mask><g mask="url(#mask17)"><path d="M372.894 125.756C395.19 125.756 413.264 143.831 413.264 166.127V230.441C413.264 252.737 395.19 270.811 372.894 270.811C350.598 270.811 332.523 252.737 332.523 230.441V166.127C332.523 143.831 350.598 125.756 372.894 125.756Z" fill="#DA8E74"/><path d="M345.631 135.631C345.631 130.177 341.21 125.756 335.757 125.756C330.304 125.756 325.883 130.177 325.883 135.631V147.165C325.883 152.618 330.304 157.039 335.757 157.039C341.21 157.039 345.631 152.618 345.631 147.165V135.631Z" fill="#3D3D3D"/><path d="M420.255 137.379C420.255 131.925 415.834 127.504 410.381 127.504C404.928 127.504 400.507 131.925 400.507 137.379V146.117C400.507 151.57 404.928 155.991 410.381 155.991C415.834 155.991 420.255 151.57 420.255 146.117V137.379Z" fill="#3D3D3D"/><path fill-rule="evenodd" clip-rule="evenodd" d="M332.519 195.338H413.26V219.455H332.519V195.338Z" fill="#FFAADE"/><path fill-rule="evenodd" clip-rule="evenodd" d="M372.978 208.444L384.425 194.987H361.531L372.978 208.444Z" fill="#DA8E74"/><path d="M415.187 222.401H331.125V273.083H415.187V222.401Z" fill="#2BE69C"/><path fill-rule="evenodd" clip-rule="evenodd" d="M332.523 219.431H413.264V228.518H332.523V219.431Z" fill="#A56644"/><path d="M352.446 219.431H346.679V232.713H352.446V219.431Z" fill="#2BE69C"/><path d="M398.755 219.431H392.988V232.713H398.755V219.431Z" fill="#2BE69C"/></g><path fill-rule="evenodd" clip-rule="evenodd" d="M362.958 138.691C367.509 138.691 371.199 142.38 371.199 146.931V151.943C371.199 156.494 367.509 160.183 362.958 160.183C358.408 160.183 354.718 156.494 354.718 151.943V146.931C354.718 142.38 358.408 138.691 362.958 138.691Z" fill="white"/><path fill-rule="evenodd" clip-rule="evenodd" d="M364.808 139.684C366.851 139.684 368.508 141.34 368.508 143.383V148.03C368.508 150.073 366.851 151.729 364.808 151.729C362.765 151.729 361.109 150.073 361.109 148.03V143.383C361.109 141.34 362.765 139.684 364.808 139.684Z" fill="#3D3D3D"/><path fill-rule="evenodd" clip-rule="evenodd" d="M382.706 138.69C378.155 138.69 374.465 142.379 374.465 146.93V151.942C374.465 156.493 378.155 160.183 382.706 160.183C387.257 160.183 390.946 156.493 390.946 151.942V146.93C390.946 142.379 387.257 138.69 382.706 138.69Z" fill="white"/><path fill-rule="evenodd" clip-rule="evenodd" d="M383.896 139.684C381.853 139.684 380.196 141.34 380.196 143.383V148.03C380.196 150.073 381.853 151.729 383.896 151.729C385.939 151.729 387.595 150.073 387.595 148.03V143.383C387.595 141.34 385.939 139.684 383.896 139.684Z" fill="#3D3D3D"/><path d="M361.617 162.487C365.849 158.256 372.709 158.256 376.941 162.487C381.172 166.719 381.172 173.579 376.941 177.811L370.268 184.484C366.036 188.715 359.175 188.715 354.944 184.484C350.712 180.252 350.712 173.392 354.944 169.16L361.617 162.487Z" fill="#3D3D3D"/><path d="M389.003 163.52L359.967 171.3L363.812 185.648L392.847 177.868L389.003 163.52Z" fill="#3D3D3D"/><path d="M382.313 156.942C376.533 155.393 370.591 158.823 369.042 164.603C367.493 170.384 370.924 176.325 376.704 177.874L385.82 180.317C391.6 181.865 397.542 178.435 399.09 172.655C400.639 166.874 397.209 160.933 391.429 159.384L382.313 156.942Z" fill="#3D3D3D"/><path fill-rule="evenodd" clip-rule="evenodd" d="M352.098 135.181H397.886V145.897H352.098V135.181Z" fill="#DA8E74"/><path d="M388.511 134.814C384.649 132.958 380.171 132.875 376.243 134.587L375.722 134.814" stroke="#3D3D3D" stroke-width="3.58255" stroke-linecap="round" stroke-linejoin="round"/><path d="M369.31 143.511C365.228 144.811 360.781 144.27 357.13 142.029L356.646 141.731" stroke="#3D3D3D" stroke-width="3.58255" stroke-linecap="round" stroke-linejoin="round"/><path d="M372.893 164.381C375.692 164.381 377.962 162.111 377.962 159.312C377.962 156.513 375.692 154.244 372.893 154.244C370.094 154.244 367.825 156.513 367.825 159.312C367.825 162.111 370.094 164.381 372.893 164.381Z" fill="#DA8E74"/><path fill-rule="evenodd" clip-rule="evenodd" d="M370.976 183.712C375.66 178.675 380.318 178.842 384.797 180.008C387.784 180.786 387.716 183.946 384.595 189.488L376.018 191.786C369.534 189.761 367.854 187.07 370.976 183.712Z" fill="#DA8E74"/><path fill-rule="evenodd" clip-rule="evenodd" d="M368.478 280.368C368.478 277.704 370.855 275.544 373.788 275.544H386.323C389.256 275.544 391.633 277.704 391.633 280.368C391.633 283.032 389.256 285.192 386.323 285.192H373.788C370.855 285.192 368.478 283.032 368.478 280.368Z" fill="#1CB0F6"/><path fill-rule="evenodd" clip-rule="evenodd" d="M354.199 280.368C354.199 277.704 356.577 275.544 359.509 275.544H372.044C374.977 275.544 377.354 277.704 377.354 280.368C377.354 283.032 374.977 285.192 372.044 285.192H359.509C356.577 285.192 354.199 283.032 354.199 280.368Z" fill="#1CB0F6"/><path d="M389.975 103.966L384.234 109.707C380.133 113.808 380.133 120.458 384.234 124.559L389.975 130.3C394.076 134.401 400.726 134.401 404.828 130.3L410.568 124.559C414.67 120.458 414.67 113.808 410.568 109.707L404.828 103.966C400.726 99.8647 394.076 99.8647 389.975 103.966Z" fill="#FFC6B7"/><path fill-rule="evenodd" clip-rule="evenodd" d="M179.942 223.463C189.111 223.463 196.544 230.896 196.544 240.065V267.853C196.544 277.022 189.111 284.456 179.942 284.456C170.772 284.456 163.339 277.022 163.339 267.853V240.065C163.339 230.896 170.772 223.463 179.942 223.463Z" fill="#3D3D3D"/><path d="M223.556 264.173H190.351V274.484H223.556V264.173Z" fill="#3D3D3D"/><path fill-rule="evenodd" clip-rule="evenodd" d="M184.758 150.401H201.186C216.243 150.401 228.449 162.607 228.449 177.664V240.579C228.449 255.636 216.243 267.843 201.186 267.843H184.758C169.701 267.843 157.495 255.636 157.495 240.579V177.664C157.495 162.607 169.701 150.401 184.758 150.401Z" fill="#3D3D3D"/><path fill-rule="evenodd" clip-rule="evenodd" d="M224.604 167.178H231.245C242.442 167.178 251.518 176.254 251.518 187.451V260.328C251.518 271.524 242.442 280.6 231.245 280.6H224.604C213.408 280.6 204.332 271.524 204.332 260.328V187.451C204.332 176.254 213.408 167.178 224.604 167.178Z" fill="#3D3D3D"/><path fill-rule="evenodd" clip-rule="evenodd" d="M137.488 285.334C139.678 284.746 140.979 282.494 140.392 280.304L135.099 260.553C134.512 258.362 132.26 257.062 130.069 257.649C127.878 258.236 126.578 260.488 127.165 262.679L132.458 282.429C133.045 284.62 135.297 285.921 137.488 285.334Z" fill="#FF4B4B"/><path fill-rule="evenodd" clip-rule="evenodd" d="M198.844 236.036H216.209C217.766 236.036 219.135 237.065 219.567 238.561L228.279 268.717H203.637L195.486 240.501C194.95 238.647 196.019 236.709 197.874 236.173C198.189 236.082 198.516 236.036 198.844 236.036Z" fill="#FFB100"/><path fill-rule="evenodd" clip-rule="evenodd" d="M221.485 272.478V285.142H151.918C149.988 285.142 148.423 283.577 148.423 281.646V275.973C148.423 274.042 149.988 272.478 151.918 272.478H221.485Z" fill="#1CB0F6"/><path fill-rule="evenodd" clip-rule="evenodd" d="M203.649 268.676H228.279L230.5 276.57C231.52 280.196 229.408 283.961 225.783 284.981C225.182 285.151 224.56 285.236 223.936 285.236H210.956C209.39 285.236 208.016 284.195 207.591 282.688L203.649 268.676Z" fill="#1CB0F6"/><path fill-rule="evenodd" clip-rule="evenodd" d="M205.596 244.095C204.985 247.956 201.359 250.59 197.498 249.979L172.031 245.945C168.17 245.334 165.536 241.708 166.147 237.847C166.759 233.986 170.385 231.352 174.245 231.964L199.713 235.997C203.574 236.609 206.208 240.234 205.596 244.095Z" fill="#FFB100"/><path fill-rule="evenodd" clip-rule="evenodd" d="M177.358 246.801C180.577 248.168 182.078 251.885 180.712 255.104L169.864 280.661C169.444 281.651 168.3 282.113 167.309 281.693L159.239 278.267C158.248 277.847 157.786 276.703 158.207 275.712L169.055 250.156C170.421 246.937 174.138 245.435 177.358 246.801Z" fill="#1CB0F6"/><path fill-rule="evenodd" clip-rule="evenodd" d="M209.392 273.71L201.084 283.268L171.308 257.384C168.668 255.089 168.389 251.09 170.683 248.451C172.977 245.811 176.977 245.532 179.616 247.826L209.392 273.71Z" fill="#1CB0F6"/><mask id="mask18" mask-type="alpha" maskUnits="userSpaceOnUse" x="176" y="174" width="61" height="63"><path d="M190.701 174.344H221.809C229.82 174.344 236.314 180.839 236.314 188.85V221.531C236.314 229.542 229.82 236.036 221.809 236.036H190.701C182.69 236.036 176.195 229.542 176.195 221.531V188.85C176.195 180.839 182.69 174.344 190.701 174.344Z" fill="white"/></mask><g mask="url(#mask18)"><path d="M190.701 174.344H221.809C229.82 174.344 236.314 180.839 236.314 188.85V221.531C236.314 229.542 229.82 236.036 221.809 236.036H190.701C182.69 236.036 176.195 229.542 176.195 221.531V188.85C176.195 180.839 182.69 174.344 190.701 174.344Z" fill="#A56644"/><path d="M235.79 170.849H171.302V181.16H235.79V170.849Z" fill="#FFB100"/></g><path d="M206.47 223.066C210.914 223.463 214.217 221.582 216.376 217.43" stroke="white" stroke-width="3.78828" stroke-linecap="round" stroke-linejoin="round"/><path fill-rule="evenodd" clip-rule="evenodd" d="M200.225 208.947H203.895C205.632 208.947 207.041 210.355 207.041 212.093C207.041 213.83 205.632 215.239 203.895 215.239H200.225C198.488 215.239 197.079 213.83 197.079 212.093C197.079 210.355 198.488 208.947 200.225 208.947Z" fill="#87401A"/><path fill-rule="evenodd" clip-rule="evenodd" d="M201.972 205.452L205.992 211.919H197.953L201.972 205.452Z" fill="#87401A"/><path fill-rule="evenodd" clip-rule="evenodd" d="M192.038 188.325C196.589 188.325 200.279 192.014 200.279 196.565V201.577C200.279 206.128 196.589 209.818 192.038 209.818C187.488 209.818 183.798 206.128 183.798 201.577V196.565C183.798 192.014 187.488 188.325 192.038 188.325Z" fill="white"/><path fill-rule="evenodd" clip-rule="evenodd" d="M194.906 193.218C196.95 193.218 198.606 194.874 198.606 196.917V201.564C198.606 203.607 196.95 205.263 194.906 205.263C192.863 205.263 191.207 203.607 191.207 201.564L191.208 196.868C191.322 196.881 191.439 196.888 191.557 196.888C193.197 196.888 194.528 195.558 194.528 193.917C194.528 193.686 194.501 193.462 194.452 193.246C194.6 193.227 194.752 193.218 194.906 193.218Z" fill="#3D3D3D"/><path d="M202.307 182.549H180.875V194.239H202.307V182.549Z" fill="#A56644"/><path fill-rule="evenodd" clip-rule="evenodd" d="M211.961 188.325C207.41 188.325 203.721 192.014 203.721 196.565V201.577C203.721 206.128 207.41 209.818 211.961 209.818C216.512 209.818 220.201 206.128 220.201 201.577V196.565C220.201 192.014 216.512 188.325 211.961 188.325Z" fill="white"/><path fill-rule="evenodd" clip-rule="evenodd" d="M211.154 193.217C210.794 193.217 210.446 193.268 210.117 193.364C210.209 193.649 210.257 193.952 210.257 194.265C210.257 195.848 209.02 197.141 207.461 197.231L207.454 197.231V201.563C207.454 203.606 209.111 205.262 211.154 205.262C213.197 205.262 214.853 203.606 214.853 201.563V196.916C214.853 194.873 213.197 193.217 211.154 193.217Z" fill="#3D3D3D"/><path d="M207.767 210.87C215.829 207.5 221.422 205.694 224.544 205.452" stroke="#A56644" stroke-width="1.07118"/><path fill-rule="evenodd" clip-rule="evenodd" d="M182.069 165.43C187.57 165.43 192.03 169.89 192.03 175.392V183.955C192.03 189.457 187.57 193.917 182.069 193.917C176.567 193.917 172.107 189.457 172.107 183.955V175.392C172.107 169.89 176.567 165.43 182.069 165.43Z" fill="#3D3D3D"/><path fill-rule="evenodd" clip-rule="evenodd" d="M154.105 271.366V285.205H145.891C144.926 285.205 144.143 284.423 144.143 283.458V271.366C144.143 270.401 144.926 269.619 145.891 269.619H152.357C153.323 269.619 154.105 270.401 154.105 271.366Z" fill="#4CC5FF"/><path fill-rule="evenodd" clip-rule="evenodd" d="M211.722 238.253C214.388 235.395 218.867 235.238 221.726 237.904L255.661 269.549L246.006 279.902L212.072 248.257C209.213 245.591 209.056 241.112 211.722 238.253Z" fill="#FFB100"/><path fill-rule="evenodd" clip-rule="evenodd" d="M245.89 279.782L255.544 269.429L264.005 276.996C264.406 277.355 264.441 277.97 264.082 278.372C264.064 278.391 264.046 278.411 264.026 278.429L259.658 282.572C256.753 285.328 252.223 285.403 249.229 282.745L245.89 279.782Z" fill="#A56644"/><path d="M269.037 276.513H252.476C250.055 276.513 248.092 278.476 248.092 280.897C248.092 283.318 250.055 285.281 252.476 285.281H269.037C271.458 285.281 273.421 283.318 273.421 280.897C273.421 278.476 271.458 276.513 269.037 276.513Z" fill="#A56644"/><path fill-rule="evenodd" clip-rule="evenodd" d="M182.863 253.569C178.565 258.02 171.473 258.143 167.022 253.845L164.219 251.139C159.769 246.841 159.645 239.748 163.943 235.298C168.241 230.847 175.333 230.723 179.784 235.021L182.587 237.728C187.038 242.026 187.161 249.118 182.863 253.569Z" fill="#FFB100"/><path d="M185.354 246.427L180.292 243.504C177.963 242.159 174.984 242.957 173.639 245.287L170.716 250.349C169.371 252.678 170.169 255.657 172.499 257.002L177.561 259.925C179.891 261.27 182.87 260.472 184.215 258.142L187.137 253.08C188.482 250.75 187.684 247.772 185.354 246.427Z" fill="#A56644"/></svg>