<svg width="52" height="52" viewBox="0 0 52 52" fill="none" xmlns="http://www.w3.org/2000/svg"><path fill-rule="evenodd" clip-rule="evenodd" d="M8.50635 23.0737L20.2094 8.70821C20.7311 8.06787 21.6336 7.88747 22.3613 8.27809L39.684 17.5763L8.50635 23.0737Z" fill="#FFB044"/><path fill-rule="evenodd" clip-rule="evenodd" d="M8.99046 22.7884L39.2676 17.4498C39.6843 17.3763 40.0817 17.6545 40.1552 18.0713L43.6311 37.7844C43.7046 38.2011 43.4263 38.5985 43.0096 38.672L12.7325 44.0107C12.3158 44.0842 11.9184 43.8059 11.8449 43.3892L8.36895 23.676C8.29546 23.2593 8.57373 22.8619 8.99046 22.7884Z" fill="#FFB044"/><path d="M15.664 10.2579C18.8432 10.989 20.9811 11.2579 22.0776 11.0645C23.1668 10.8725 25.0529 9.90258 27.736 8.15491C29.5355 6.98274 31.9445 7.4913 33.1166 9.29079C33.4026 9.72977 33.5969 10.222 33.6878 10.7379L35.773 22.5635C36.8793 28.8378 32.6899 34.8209 26.4157 35.9272C20.1414 37.0335 14.1583 32.8441 13.052 26.5699L10.963 14.7228C10.5901 12.6079 12.0023 10.591 14.1173 10.2181C14.6303 10.1276 15.1563 10.1412 15.664 10.2579Z" fill="#58CC02"/><path d="M21.0829 28.5868L23.9419 28.0817C24.0952 28.0546 24.2288 28.1771 24.2057 28.3236C24.0952 29.0275 23.5144 29.6028 22.759 29.7362C22.0037 29.8697 21.2616 29.5282 20.9175 28.9046C20.8459 28.7748 20.9296 28.6139 21.0829 28.5868Z" fill="#89E219"/><path d="M26.0721 27.7072L28.9312 27.202C29.0844 27.1749 29.218 27.2974 29.195 27.444C29.0844 28.1479 28.5037 28.7231 27.7483 28.8566C26.9929 28.9901 26.2509 28.6486 25.9068 28.025C25.8352 27.8952 25.9189 27.7343 26.0721 27.7072Z" fill="#89E219"/><path d="M24.0018 30.5566L26.8609 30.0514C27.0141 30.0243 27.1477 30.1468 27.1247 30.2933C27.0141 30.9973 26.4333 31.5725 25.678 31.706C24.9226 31.8394 24.1806 31.4979 23.8365 30.8743C23.7649 30.7446 23.8486 30.5836 24.0018 30.5566Z" fill="#89E219"/><path d="M17.7596 36.2631C17.6304 37.1825 16.6418 37.7084 15.8073 37.3017C11.798 35.3475 9.45473 30.9715 10.0919 26.4395C10.729 21.9075 14.188 18.3467 18.5809 17.573C19.4952 17.412 20.3004 18.1899 20.1712 19.1093L17.7596 36.2631Z" fill="#58CC02"/><path fill-rule="evenodd" clip-rule="evenodd" d="M43.4126 38.4647C39.2902 37.5896 36.2385 36.7665 34.2576 35.9954C32.2207 35.2026 29.6691 33.8237 26.6025 31.8587C29.9466 29.6669 32.3694 27.6749 33.8709 25.8829C35.3713 24.0923 37.4572 21.4531 40.1285 17.9651C40.1396 17.9993 40.1485 18.0347 40.155 18.0711L43.6309 37.7842C43.6765 38.0427 43.5868 38.2937 43.4126 38.4647Z" fill="#FFE879"/><path fill-rule="evenodd" clip-rule="evenodd" d="M11.8449 43.389L8.36896 23.6758C8.36263 23.64 8.35892 23.6042 8.35767 23.5688C11.5954 26.2538 14.4873 28.1641 17.0335 29.2997C19.582 30.4363 22.7534 31.2925 26.5477 31.8684C25.2752 33.6654 23.6329 35.4115 21.6208 37.1067C19.653 38.7645 16.5353 41.0445 12.2678 43.9467C12.053 43.8433 11.8895 43.6416 11.8449 43.389Z" fill="#FFE879"/><path fill-rule="evenodd" clip-rule="evenodd" d="M12.2329 43.9288L26.3625 31.9012C26.4695 31.811 26.6172 31.7863 26.7477 31.8369L43.4556 38.4192C43.3444 38.5476 43.19 38.6401 43.0097 38.6719L12.7326 44.0105C12.5546 44.0419 12.3801 44.0091 12.2329 43.9288Z" fill="#FFDB64"/><path d="M27.1242 22.5558L36.8101 8.19442C37.3293 7.42464 38.4482 7.38535 39.0199 8.11681C41.7668 11.6312 41.9547 16.5919 39.3957 20.3862C36.8367 24.1804 32.1672 25.8645 27.88 24.6339C26.9877 24.3778 26.605 23.3255 27.1242 22.5558Z" fill="#58CC02"/><path d="M17.1732 12.0663L21.2474 15.1826C21.4619 15.3503 21.4508 15.6783 21.2254 15.8304C20.1425 16.5612 18.6888 16.5137 17.6315 15.687C16.5743 14.8603 16.1766 13.46 16.623 12.2316C16.716 11.9759 16.9587 11.8985 17.1732 12.0663Z" fill="#89E219"/><path d="M20.418 14.6297C21.7819 15.6907 23.878 15.3154 24.7747 13.8557L26.065 21.1737C26.0624 21.1589 24.6099 21.415 21.7073 21.9421C21.3171 19.7938 20.8873 17.3564 20.418 14.6297Z" fill="#89E219"/><path d="M15.6183 13.2578L19.6227 16.389C19.8373 16.5569 19.8263 16.885 19.6009 17.037C18.5178 17.7676 17.0634 17.7197 16.0054 16.8924C14.9474 16.0651 14.5491 14.6643 14.9953 13.4357C15.0882 13.18 15.4037 13.0899 15.6183 13.2578Z" fill="#89E219"/><path d="M16.7614 13.8886L17.0798 13.8324C19.4278 13.4184 21.6668 14.9862 22.0808 17.3341L22.5643 20.0763C22.9783 22.4242 21.4105 24.6632 19.0626 25.0772L18.7441 25.1334C16.3962 25.5474 14.1572 23.9796 13.7432 21.6317L13.2597 18.8895C12.8457 16.5416 14.4134 14.3026 16.7614 13.8886Z" fill="#89E219"/><path d="M26.8694 10.3538C27.0137 10.1227 27.341 10.0995 27.5157 10.308C28.3552 11.3098 28.46 12.7624 27.7488 13.9017C27.0376 15.0409 25.6872 15.5834 24.4196 15.2673C24.1558 15.2015 24.0332 14.897 24.1775 14.6658L26.8694 10.3538Z" fill="#89E219"/><path d="M28.7195 10.9476C28.8638 10.7164 29.191 10.6933 29.3658 10.9018C30.2053 11.9036 30.3101 13.3562 29.5989 14.4954C28.8877 15.6346 27.5373 16.1771 26.2697 15.8611C26.0059 15.7953 25.8833 15.4907 26.0276 15.2596L28.7195 10.9476Z" fill="#89E219"/><path d="M27.7053 11.8668L28.0237 11.8107C30.3716 11.3967 32.6106 12.9645 33.0246 15.3124L33.5082 18.0545C33.9222 20.4025 32.3544 22.6415 30.0064 23.0555L29.7097 23.1078C27.3749 23.5195 25.1449 21.9712 24.7148 19.6397L24.2096 16.9014C23.7771 14.5568 25.3271 12.3055 27.6717 11.8729C27.6829 11.8708 27.6941 11.8688 27.7053 11.8668Z" fill="#89E219"/><path d="M17.07 15.4903C18.7923 15.1866 20.4347 16.3366 20.7384 18.059L21.0706 19.9431C21.3743 21.6654 20.2243 23.3078 18.502 23.6115C16.7796 23.9152 15.1372 22.7652 14.8335 21.0429L14.5013 19.1587C14.1976 17.4364 15.3476 15.794 17.07 15.4903Z" fill="white"/><path d="M28.1188 13.542C29.8411 13.2384 31.4836 14.3884 31.7872 16.1107L32.1195 17.9948C32.4232 19.7172 31.2731 21.3596 29.5508 21.6633C27.8284 21.967 26.186 20.817 25.8823 19.0946L25.5501 17.2105C25.2464 15.4882 26.3964 13.8457 28.1188 13.542Z" fill="white"/><path d="M23.5179 19.2306C24.4037 19.0744 25.2484 19.6658 25.4046 20.5516L25.8776 23.2341C26.0337 24.1199 25.4423 24.9645 24.5565 25.1207C23.6707 25.2769 22.8261 24.6855 22.6699 23.7997L22.1969 21.1172C22.0407 20.2314 22.6322 19.3868 23.5179 19.2306Z" fill="#F49000"/><path d="M23.628 19.8554C24.3169 19.7339 24.9739 20.1939 25.0954 20.8829L25.4108 22.6717C25.5323 23.3607 25.0723 24.0177 24.3833 24.1391C23.6944 24.2606 23.0374 23.8006 22.9159 23.1117L22.6005 21.3228C22.479 20.6338 22.939 19.9769 23.628 19.8554Z" fill="#B86D00"/><path d="M21.5308 20.9881C21.538 19.9354 22.3341 18.9791 23.5026 18.7731C24.5438 18.5895 25.6191 19.2158 25.9859 20.2026L26.0087 20.3319L23.8481 21.1047L21.5536 21.1175L21.5308 20.9881Z" fill="#FFC200"/><path d="M23.1918 19.8732C23.0368 19.9628 22.8386 19.9097 22.7491 19.7547C22.6596 19.5998 22.7126 19.4016 22.8676 19.312C23.2393 19.0973 23.6434 19.0261 24.0661 19.1007C24.2424 19.1318 24.36 19.2999 24.3289 19.4762C24.2978 19.6524 24.1297 19.77 23.9534 19.7389C23.6808 19.6908 23.4315 19.7348 23.1918 19.8732Z" fill="#FFDE00"/><path d="M19.6042 18.3999C19.461 17.5879 18.6867 17.0458 17.8748 17.1889C17.6487 17.2288 17.4435 17.3176 17.2682 17.4426C17.4945 17.5798 17.6628 17.8103 17.7124 18.0917C17.8037 18.6092 17.4588 19.1026 16.9421 19.1937C16.8653 19.2073 16.7891 19.2112 16.7146 19.2063L16.9479 20.5295C17.0911 21.3414 17.8654 21.8836 18.6773 21.7404C19.4893 21.5972 20.0315 20.823 19.8883 20.011L19.6042 18.3999Z" fill="#4B4B4B"/><path d="M29.6726 16.6245C29.5295 15.8125 28.7552 15.2704 27.9432 15.4136C27.6707 15.4616 27.4286 15.5807 27.2326 15.7485C27.4212 15.8885 27.5587 16.0982 27.6027 16.3479C27.694 16.8654 27.3491 17.3588 26.8324 17.4499C26.8174 17.4525 26.8025 17.4548 26.7876 17.4567L27.0164 18.7541C27.1595 19.566 27.9338 20.1082 28.7458 19.965C29.5577 19.8219 30.0999 19.0476 29.9567 18.2356L29.6726 16.6245Z" fill="#4B4B4B"/><path d="M14.632 20.6523C16.5991 20.671 18.8401 20.9841 21.3608 21.5871L20.686 24.4081C18.3643 23.8527 16.3352 23.5692 14.6045 23.5528L14.632 20.6523Z" fill="#89E219"/><path d="M32.391 17.4143L33.4088 20.1304C31.7881 20.7378 29.9783 21.6982 27.9866 23.0141L26.3877 20.5941C28.5502 19.1653 30.5489 18.1046 32.391 17.4143Z" fill="#89E219"/></svg>