<?xml version="1.0" encoding="utf-8"?><svg version="1.1" id="Layer_1" xmlns="http://www.w3.org/2000/svg" xmlns:xlink="http://www.w3.org/1999/xlink" x="0px" y="0px" viewBox="0 0 223 185" style="enable-background:new 0 0 223 185" xml:space="preserve"><style type="text/css">.st0{opacity:0.3;fill-rule:evenodd;clip-rule:evenodd;fill:#AFAFAF;enable-background:new ;} .st1{fill-rule:evenodd;clip-rule:evenodd;fill:#F49000;} .st2{fill:#58CC02;} .st3{fill-rule:evenodd;clip-rule:evenodd;fill:#58CC02;} .st4{fill:#89E219;} .st5{fill-rule:evenodd;clip-rule:evenodd;fill:#B86D00;} .st6{fill:#FFC200;} .st7{fill:#FFDE00;} .st8{fill-rule:evenodd;clip-rule:evenodd;fill:#FFFFFF;} .st9{fill-rule:evenodd;clip-rule:evenodd;fill:#4B4B4B;} .st10{fill-rule:evenodd;clip-rule:evenodd;fill:#FFE879;} .st11{fill-rule:evenodd;clip-rule:evenodd;fill:#FFDB64;} .st12{fill-rule:evenodd;clip-rule:evenodd;fill:#FFB9B9;} .st13{fill-rule:evenodd;clip-rule:evenodd;fill:#B9E7FF;} .st14{fill-rule:evenodd;clip-rule:evenodd;fill:#FFD612;}</style><path id="ground" class="st0" d="M171.4,183H91.6c-2,0-3.6-1.8-3.6-4s1.6-4,3.6-4h79.9c2,0,3.6,1.8,3.6,4S173.4,183,171.4,183z"/><g id="feet"><path id="left_foot" class="st1" d="M100.4,167.2c0.1-4.3,3.6-7.8,7.9-7.8l0,0h12.3c4.3,0,7.8,3.5,7.7,7.8s-3.6,7.8-7.9,7.8l0,0 h-12.3C103.8,175,100.3,171.5,100.4,167.2z"/><path id="right_foot" class="st1" d="M182.1,138.9c3,3.2,2.8,8.1-0.4,11l-9.1,8.4l0,0c-3.2,2.9-8.2,2.8-11.2-0.4s-2.8-8.1,0.4-11 l9.1-8.4l0,0C174.1,135.6,179.1,135.8,182.1,138.9z"/></g><g id="wings"><path id="left_wing" class="st2" d="M28.4,102.8l62.2-64.4c3.3-3.5,9.1-2.7,11.3,1.6c10.8,20.3,7.3,45.7-9.2,62.7 S51.1,124.1,30.4,114C26.1,112,25.1,106.3,28.4,102.8z"/><path id="right_wing" class="st2" d="M205.6,33.7c4.5-1.8,9.4,1.3,9.7,6c1.6,22.9-11.9,44.6-33.9,53.5c-22,8.8-46.8,2.6-61.7-15 c-3.1-3.7-1.7-9.3,2.8-11L205.6,33.7z"/></g><path id="torso" class="st3" d="M80.8,14.7C97.1,19,108,20.8,113.7,20c5.6-0.8,15.5-5.4,29.7-14c9.5-5.7,21.8-2.7,27.5,6.8	c1.4,2.3,2.3,4.9,2.7,7.6l8.6,61.3c4.6,32.5-18.1,62.6-50.6,67.1S69,130.7,64.4,98.2l-8.6-61.4c-1.5-11,6.1-21.1,17.1-22.6	C75.5,13.8,78.2,14,80.8,14.7z"/><path id="belly" class="st4" d="M122,109.6c0.2-0.7-0.5-1.3-1.3-1.2l-15.3,2.1c-0.8,0.1-1.3,0.9-1,1.5c1.7,3.1,5.5,4.8,9.5,4.3	C118.1,115.7,121.3,113,122,109.6z M147.2,104.6l-15.3,2.1c-0.8,0.1-1.3,0.9-1,1.5c1.7,3.1,5.5,4.8,9.5,4.3c4-0.6,7.2-3.3,8-6.7	C148.7,105.1,148,104.5,147.2,104.6z M135.2,119.3l-15.3,2.1c-0.8,0.1-1.3,0.9-1,1.5c1.7,3.1,5.5,4.8,9.5,4.3s7.2-3.3,8-6.7	C136.7,119.8,136.1,119.2,135.2,119.3z"/><g id="face"><path id="eye_mask" class="st4" d="M129.3,73.5c-3,0.4-8,1.1-14.9,2.1c-2.3,8.3-9.3,15-18.5,16.3l-1.7,0.2 C82,93.8,70.7,85.4,69,73.2L67,59c-1.2-8.4,2.5-16.3,8.9-21c-0.1-2.3,0.2-4.6,1.1-6.8c0.5-1.3,2.2-1.7,3.3-0.8l4.4,3.7h0.1 c-0.6-2.9-0.3-5.9,0.9-8.8c0.5-1.3,1.8-1.7,2.9-0.8l19,15.5c5.7,2.9,13,1.9,17.7-2.3L139,17.6c0.8-1.2,2.5-1.2,3.4-0.1 c1.8,2.3,2.9,4.9,3.2,7.7c0,0,0,0,0.1,0l2.9-4.2c0.8-1.2,2.5-1.2,3.4-0.1c1.2,1.6,2.1,3.4,2.7,5.2c8,2.5,14.2,9.3,15.4,18.1l2,14.2 c1.7,12.1-6.8,23.4-19.1,25.1l-1.5,0.2C142.3,84.9,133.8,80.6,129.3,73.5L129.3,73.5z"/><g id="mouth" transform="translate(108.115335, 58.427231)"><g id="lower_beak"><path id="beak" class="st1" d="M11.4,4.2c4.6-0.6,8.9,2.5,9.5,7.1l1.9,13.8c0.6,4.6-2.6,8.8-7.2,9.4C11,35.1,6.7,32,6.1,27.4 L4.3,13.6C3.6,9.1,6.8,4.8,11.4,4.2z"/><path id="opening" class="st5" d="M11.8,7.1c3.5-0.5,6.8,2,7.3,5.7l1.3,9.4c0.5,3.6-1.9,7-5.5,7.5c-3.5,0.5-6.8-2-7.3-5.7 l-1.3-9.4C5.9,11,8.3,7.6,11.8,7.1z"/></g><g id="upper_beak"><path id="beak_1_" class="st6" d="M0.8,13C1.1,7.7,5.5,3,11.7,2.1c5.5-0.8,11,2.5,12.7,7.6l0.1,0.7L13,13.9L1,13.6L0.8,13z"/><path id="glare_2_" class="st7" d="M10.1,7.5C9.2,8,8.1,7.7,7.7,6.8C7.2,6,7.6,4.9,8.4,4.5c2.1-1.1,4.3-1.4,6.5-0.9 c0.9,0.2,1.6,1.1,1.4,2.1c-0.2,0.9-1.1,1.5-2.1,1.3C12.8,6.6,11.4,6.8,10.1,7.5z"/></g></g><g id="eyes"><g id="left_eye"><path id="eye_ball_1_" class="st8" d="M87.1,42.2c8.9-1.3,17.2,5,18.5,13.9l1.4,9.8c1.3,8.9-5,17.2-13.9,18.4 c-8.9,1.3-17.2-5-18.5-13.9l-1.4-9.8C71.9,51.7,78.1,43.4,87.1,42.2z"/><path id="pupil_1_" class="st9" d="M91.7,50.5c4.3-0.6,8.3,2.3,8.9,6.5l1.2,8.3c0.6,4.2-2.4,8.1-6.8,8.7 c-4.3,0.6-8.3-2.3-8.9-6.5L85,59.2C84.4,55,87.4,51.1,91.7,50.5z"/><ellipse id="glare_1_" transform="matrix(0.9903 -0.1392 0.1392 0.9903 -7.0028 12.4627)" class="st8" cx="85.6" cy="56.3" rx="5" ry="4.9"/></g><g id="right_eye"><path id="eye_ball" class="st8" d="M145,34c8.9-1.3,17.2,5,18.5,13.9l1.4,9.8c1.3,8.9-5,17.2-13.9,18.4 c-8.9,1.3-17.2-5-18.5-13.9l-1.4-9.8C129.8,43.5,136,35.3,145,34z"/><path id="pupil" class="st9" d="M143.8,43.2c4.3-0.6,8.3,2.3,8.9,6.5l1.2,8.3c0.6,4.2-2.4,8.1-6.8,8.7c-4.3,0.6-8.3-2.3-8.9-6.5 l-1.2-8.3C136.4,47.7,139.4,43.8,143.8,43.2z"/><ellipse id="glare" transform="matrix(0.9903 -0.1392 0.1392 0.9903 -5.5183 19.494)" class="st8" cx="136.6" cy="49.2" rx="5" ry="4.9"/></g></g><g id="eye_puffs"><path class="st4" d="M73.6,67.2c10.2,0.5,21.9,2.5,34.9,6.1l-2.9,9.5c-0.8,2.5-3,4.2-5.6,4.4c-7.8,0.4-13.3-0.3-17.9-2 C79,84,76.7,81.2,76,78L73.6,67.2z"/><path class="st4" d="M166.8,54l2.3,11.9c0.4,1.9-0.2,3.9-1.6,5.3c-4.3,4.5-11.8,8.2-20.5,10.3c-2.5,0.6-5.2-0.5-6.6-2.7l-5.7-9.3 C146.4,62.4,157,57.2,166.8,54z"/></g></g><g id="envelope"><path id="Fill-12" class="st10" d="M105.7,138.9L29,122.7c-0.8-0.2-1.4-1-1.2-1.9l8.5-47.5c0.1-0.4,0.5-0.7,0.9-0.6 c0.1,0,0.3,0.1,0.4,0.2l33.8,31.2c0.4,0.4,1,0.5,1.5,0.3L115,89.2c0.4-0.1,0.8,0.1,1,0.5c0,0.1,0.1,0.3,0,0.4l-8.5,47.5 C107.3,138.5,106.5,139.1,105.7,138.9z"/><path id="Fill-3" class="st11" d="M37.2,72.3c-0.4,0.2-0.5,0.6-0.3,0.9c0,0.1,0.1,0.1,0.1,0.2l34.3,35l43.9-18.5 c0.4-0.2,0.5-0.6,0.3-0.9c0-0.1-0.1-0.1-0.1-0.2L37.2,72.3z"/></g><path id="hand" class="st3" d="M37.3,89.7l4.8,5.4c3.6,4.1,3.3,10.3-0.8,14c-1.2,1-2.5,1.8-4,2.2l-5.6,1.5c-3.4,0.9-6.8-1.1-7.7-4.5	c-0.3-0.9-0.3-1.9-0.1-2.9l2.6-12.8c0.7-3.4,4-5.6,7.4-4.9C35.2,88,36.4,88.7,37.3,89.7z"/><g id="sparkles"><path id="Clip-61" class="st12" d="M24.7,143.9l5.8-6.2c0.9-1,2.4-1,3.4,0l5.4,5.8c0.9,1,0.9,2.6,0,3.6l-5.8,6.2 c-0.9,1-2.4,1-3.4,0l-5.4-5.8C23.8,146.5,23.8,144.9,24.7,143.9z"/><path id="Clip-64" class="st13" d="M0.7,76.9L3,74.6c0.9-0.9,2.3-0.9,3.2,0l2.3,2.3c0.9,0.9,0.9,2.3,0,3.2l-2.3,2.3 c-0.9,0.9-2.3,0.9-3.2,0l-2.3-2.3C-0.2,79.2-0.2,77.8,0.7,76.9z"/><path id="Clip-70" class="st14" d="M19.7,55.9l4.2-4.2c0.9-0.9,2.4-0.9,3.2,0l4.2,4.2c0.9,0.9,0.9,2.4,0,3.2l-4.2,4.2 c-0.9,0.9-2.4,0.9-3.2,0l-4.2-4.2C18.8,58.2,18.8,56.8,19.7,55.9z"/></g></svg>