<svg width="52" height="52" viewBox="0 0 52 52" fill="none" xmlns="http://www.w3.org/2000/svg"><g clip-path="url(#clip0_6465_62207)"><rect width="17.0227" height="3.09503" rx="1.54751" transform="matrix(0.707106 -0.707107 0.707106 0.707108 7.91821 41.4441)" fill="#AAC1D4"/><rect width="13.9276" height="6.19005" rx="3.09503" transform="matrix(0.707106 -0.707107 0.707106 0.707108 5.87524 41.4155)" fill="#CD7900"/><path d="M37.9403 28.9753C41.6038 23.7433 40.3322 16.5321 35.1003 12.8687C29.8683 9.20518 22.6571 10.4767 18.9937 15.7087C15.3302 20.9407 16.6017 28.1519 21.8337 31.8153C27.0657 35.4788 34.2768 34.2073 37.9403 28.9753Z" fill="#DDF4FF"/><g opacity="0.56"><mask id="mask0_6465_62207" style="mask-type:alpha" maskUnits="userSpaceOnUse" x="16" y="10" width="25" height="24"><path d="M40.0322 22.3419C40.0322 15.9548 34.8544 10.7771 28.4674 10.7771C22.0803 10.7771 16.9026 15.9548 16.9026 22.3419C16.9026 28.729 22.0804 33.9067 28.4674 33.9067C34.8545 33.9067 40.0322 28.729 40.0322 22.3419Z" fill="#DDF4FF"/></mask><g mask="url(#mask0_6465_62207)"><path fill-rule="evenodd" clip-rule="evenodd" d="M23.2507 18.6078C22.1931 19.6654 22.1931 21.3801 23.2507 22.4377C24.3083 23.4953 26.023 23.4953 27.0806 22.4377L37.476 12.0422C38.5336 10.9846 38.5336 9.26989 37.476 8.21229C36.4184 7.15469 34.7037 7.15469 33.6461 8.21229L23.2507 18.6078ZM20.1653 32.5384C19.1077 33.596 19.1077 35.3107 20.1653 36.3683C21.2229 37.4259 22.9376 37.4259 23.9952 36.3683L33.8435 26.52C34.9011 25.4624 34.9011 23.7477 33.8435 22.6901C32.7859 21.6325 31.0712 21.6325 30.0136 22.6901L20.1653 32.5384Z" fill="white"/></g></g><path d="M40.0295 22.34C40.0295 15.9529 34.8518 10.7751 28.4647 10.7751C22.0776 10.7751 16.8999 15.9529 16.8999 22.34C16.8999 28.727 22.0777 33.9048 28.4648 33.9048C34.8518 33.9048 40.0295 28.727 40.0295 22.34Z" stroke="#C2D1DD" stroke-width="4.64254"/></g><defs><clipPath id="clip0_6465_62207"><rect width="52" height="52" fill="white"/></clipPath></defs></svg>