<svg width="32" height="30" viewBox="0 0 32 30" fill="none" xmlns="http://www.w3.org/2000/svg"><path id="Union" fill-rule="evenodd" clip-rule="evenodd" d="M30.212 2.15941C30.7327 1.63871 30.7636 0.825352 30.2809 0.342718C29.7983 -0.139916 28.9849 -0.109058 28.4642 0.411641L1.58468 27.462C1.06398 27.9827 1.03312 28.7961 1.51576 29.2787C1.99839 29.7614 2.81175 29.7305 3.33245 29.2098L16.7722 15.6846L30.212 2.15941ZM15.6495 3.99197C17.8815 3.99197 20.1109 4.51056 22.152 5.34578L20.5336 6.98136C18.9541 6.42542 17.2892 6.09686 15.6495 6.09686C12.3959 6.09686 8.95749 7.50403 6.31733 9.40662C5.00389 10.3531 3.92596 11.3957 3.18668 12.3974C2.43171 13.4204 2.10489 14.2972 2.10489 14.9328C2.10489 15.5683 2.43171 16.4452 3.18668 17.4682C3.92596 18.4699 5.00389 19.5124 6.31733 20.4589C6.48794 20.5819 6.66187 20.7027 6.83888 20.8213L5.33407 22.3421C5.25087 22.284 5.16841 22.2255 5.08672 22.1666C3.63388 21.1196 2.38701 19.9294 1.49307 18.7181C0.614829 17.528 0 16.2116 0 14.9328C0 13.6539 0.614829 12.3375 1.49307 11.1475C2.38701 9.93619 3.63388 8.74592 5.08672 7.69895C7.97914 5.61457 11.8393 3.99197 15.6495 3.99197ZM15.6484 7.75888C16.8441 7.75888 17.9714 8.0514 18.9628 8.56877L17.3808 10.1675C16.8403 9.97097 16.2569 9.86377 15.6484 9.86377C12.8489 9.86377 10.5795 12.1332 10.5795 14.9327C10.5795 15.56 10.6935 16.1607 10.9018 16.7153L9.31987 18.314C8.78048 17.3066 8.47461 16.1553 8.47461 14.9327C8.47461 10.9707 11.6864 7.75888 15.6484 7.75888ZM22.0596 11.7104L20.4583 13.3287C20.6263 13.8328 20.7173 14.3721 20.7173 14.9327C20.7173 17.7322 18.4479 20.0016 15.6484 20.0016C15.1066 20.0016 14.5847 19.9166 14.0952 19.7592L12.4939 21.3775C13.4459 21.8444 14.5166 22.1065 15.6484 22.1065C19.6104 22.1065 22.8222 18.8947 22.8222 14.9327C22.8222 13.7739 22.5475 12.6793 22.0596 11.7104ZM15.6495 23.7687C14.0991 23.7687 12.5067 23.4492 10.9788 22.9088L9.36142 24.5432C11.3529 25.3615 13.5091 25.8736 15.6495 25.8736C19.5162 25.8736 23.375 24.3172 26.2608 22.2544C27.7088 21.2194 28.9466 20.0326 29.8322 18.805C30.707 17.5921 31.2991 16.2525 31.2991 14.9328C31.2991 13.613 30.707 12.2735 29.8322 11.0606C28.9466 9.83291 27.7088 8.6461 26.2608 7.6111L26.1757 7.55062L24.6723 9.06995C24.7955 9.15335 24.917 9.23789 25.0368 9.32351C26.3379 10.2535 27.3989 11.2852 28.125 12.2919C28.8619 13.3135 29.1942 14.2242 29.1942 14.9328C29.1942 15.6414 28.8619 16.5521 28.125 17.5736C27.3989 18.5803 26.3379 19.612 25.0368 20.542C22.4245 22.4093 18.9847 23.7687 15.6495 23.7687Z" fill="#1CB0F6"/></svg>