<svg width="33" height="32" viewBox="0 0 33 32" fill="none" xmlns="http://www.w3.org/2000/svg"><g clip-path="url(#clip0)"><path d="M16.0859 26.3226C23.4866 26.3226 31.0859 20.33 31.0859 16.1613C31.0859 11.9925 23.4866 6 16.0859 6C8.82706 6 1.08594 12.2268 1.08594 16.1613C1.08594 20.0958 8.82706 26.3226 16.0859 26.3226Z" stroke="#1CB0F6" stroke-width="2"/><path d="M16.0863 19.5484C17.957 19.5484 19.4734 18.0319 19.4734 16.1613C19.4734 14.2907 17.957 12.7742 16.0863 12.7742C14.2157 12.7742 12.6992 14.2907 12.6992 16.1613C12.6992 18.0319 14.2157 19.5484 16.0863 19.5484Z" fill="#1CB0F6"/><path d="M16.0852 22.4516C19.5593 22.4516 22.3756 19.6353 22.3756 16.1613C22.3756 12.6872 19.5593 9.87097 16.0852 9.87097C12.6112 9.87097 9.79492 12.6872 9.79492 16.1613C9.79492 19.6353 12.6112 22.4516 16.0852 22.4516Z" stroke="#1CB0F6" stroke-width="2"/></g><defs><clipPath id="clip0"><rect width="32" height="32" fill="white" transform="translate(0.0859375)"/></clipPath></defs></svg>