<?xml version="1.0" encoding="UTF-8"?><svg width="73px" height="90px" viewBox="0 0 73 90" version="1.1" xmlns="http://www.w3.org/2000/svg" xmlns:xlink="http://www.w3.org/1999/xlink"><title>Champion</title><desc>Created with Sketch.</desc><g id="Champion" stroke="none" stroke-width="1" fill="none" fill-rule="evenodd"><path d="M14,0 L59.0000325,0 C66.732019,-3.19669972e-15 73.0000325,6.2680135 73.0000325,14 L73.0000325,76 C73.0000325,83.7319865 66.732019,90 59.0000325,90 L14,90 C6.2680135,90 1.67924438e-13,83.7319865 1.63424829e-13,76 L1.63424829e-13,14 C1.60701577e-13,6.2680135 6.2680135,-3.56013962e-16 14,0 Z" id="Shield-Copy-13" fill="#AC68D7" fill-rule="nonzero"/><path d="M14,0 L59.0000325,0 C66.732019,2.1323708e-15 73.0000325,6.2680135 73.0000325,14 L73.0000325,72 C73.0000325,79.7319865 66.732019,86 59.0000325,86 L14,86 C6.2680135,86 1.67924438e-13,79.7319865 1.63424829e-13,72 L1.63424829e-13,14 C1.64254291e-13,6.2680135 6.2680135,1.42034288e-15 14,0 Z" id="Shield-Copy-14" fill="#CE82FF" fill-rule="nonzero"/><path d="M22,13 L51,13 C53.7614237,13 56,15.2385763 56,18 L56,36 C56,46.4934102 47.4934102,55 37,55 L36,55 C25.5065898,55 17,46.4934102 17,36 L17,18 C17,15.2385763 19.2385763,13 22,13 Z" id="Rectangle-Copy-2" fill="#FEC701"/><path d="M22,10.25 L51,10.25 C55.2802068,10.25 58.75,13.7197932 58.75,18 L58.75,36 C58.75,48.0121933 49.0121933,57.75 37,57.75 L36,57.75 C23.9878067,57.75 14.25,48.0121933 14.25,36 L14.25,18 C14.25,13.7197932 17.7197932,10.25 22,10.25 Z M22,15.75 C20.7573593,15.75 19.75,16.7573593 19.75,18 L19.75,36 C19.75,44.9746272 27.0253728,52.25 36,52.25 L37,52.25 C45.9746272,52.25 53.25,44.9746272 53.25,36 L53.25,18 C53.25,16.7573593 52.2426407,15.75 51,15.75 L22,15.75 Z" id="Rectangle-Copy-2" fill="#FEE333" fill-rule="nonzero"/><path d="M31.2474506,27.7669065 L31.2474506,24.0697899 C31.2474506,20.6945584 34.0683653,17.9583927 37.5481398,17.9583927 C41.0279144,17.9583927 43.8488291,20.6945584 43.8488291,24.0697899 L43.8488291,33.4123549 C43.8488291,33.7302432 43.7186797,34.0342709 43.4886653,34.2536938 L41.0594758,36.5710265 C41.0119357,36.6163776 40.985161,36.6783453 40.985161,36.7430216 C40.985161,36.8762544 41.0965129,36.9842609 41.2338724,36.9842609 L43.2674483,36.9842609 C43.588536,36.9842609 43.8488291,37.244554 43.8488291,37.5656417 L43.8488291,39.215397 C43.8488291,40.0673568 43.414086,40.8640878 42.6877813,41.3431885 L37.5481398,44.7335095 L32.4084984,41.3431885 C31.6821937,40.8640878 31.2474506,40.0673568 31.2474506,39.215397 L31.2474506,31.9109116 C31.2474506,31.5898239 31.5077437,31.3295308 31.8288314,31.3295308 L33.8526775,31.3295308 C33.9900371,31.3295308 34.1013889,31.2215243 34.1013889,31.0882914 C34.1013889,31.0236151 34.0746142,30.9616475 34.0270741,30.9162964 L31.6076144,28.6082454 C31.3776,28.3888226 31.2474506,28.0847948 31.2474506,27.7669065 Z" id="Path" fill="#F89701" fill-rule="nonzero" transform="translate(37.548140, 31.345951) rotate(-315.000000) translate(-37.548140, -31.345951)"/><path d="M40.4794512,26.8400776 C40.9480804,26.3714485 41.7078783,26.3714485 42.1765075,26.8400776 C42.6451366,27.3087068 42.6451366,28.0685047 42.1765075,28.5371339 L27.0004696,43.7131718 C26.5318404,44.1818009 25.7720425,44.1818009 25.3034133,43.7131718 C24.8347842,43.2445426 24.8347842,42.4847447 25.3034133,42.0161155 L40.4794512,26.8400776 Z" id="Path" fill="#ED8200" fill-rule="nonzero"/></g></svg>