<?xml version="1.0" encoding="UTF-8"?><svg width="73px" height="90px" viewBox="0 0 73 90" version="1.1" xmlns="http://www.w3.org/2000/svg" xmlns:xlink="http://www.w3.org/1999/xlink"><title>Sage</title><desc>Created with Sketch.</desc><g id="Sage" stroke="none" stroke-width="1" fill="none" fill-rule="evenodd"><path d="M14,0 L59.0000325,0 C66.732019,-3.19669972e-15 73.0000325,6.2680135 73.0000325,14 L73.0000325,76 C73.0000325,83.7319865 66.732019,90 59.0000325,90 L14,90 C6.2680135,90 1.67924438e-13,83.7319865 1.63424829e-13,76 L1.63424829e-13,14 C1.60701577e-13,6.2680135 6.2680135,-3.56013962e-16 14,0 Z" id="Shield-Copy-13" fill="#619F09" fill-rule="nonzero"/><path d="M14,0 L59.0000325,0 C66.732019,2.1323708e-15 73.0000325,6.2680135 73.0000325,14 L73.0000325,72 C73.0000325,79.7319865 66.732019,86 59.0000325,86 L14,86 C6.2680135,86 1.67924438e-13,79.7319865 1.63424829e-13,72 L1.63424829e-13,14 C1.64254291e-13,6.2680135 6.2680135,1.42034288e-15 14,0 Z" id="Shield-Copy-14" fill="#7AC70C" fill-rule="nonzero"/><path d="M25,28 L48,28 C52.418278,28 56,31.581722 56,36 C56,40.418278 52.418278,44 48,44 L25,44 C20.581722,44 17,40.418278 17,36 C17,31.581722 20.581722,28 25,28 Z" id="Rectangle-Copy-296" fill="#E5E5E5"/><path d="M36.6548409,18.8712408 C43.0575104,18.8712408 48.2478996,24.06163 48.2478996,30.4642996 L48.2478996,35.6641997 C48.2478996,42.0668692 43.0575104,47.2572584 36.6548409,47.2572584 C30.2521713,47.2572584 25.0617821,42.0668692 25.0617821,35.6641997 L25.0617821,30.4642996 C25.0617821,24.06163 30.2521713,18.8712408 36.6548409,18.8712408 Z" id="Rectangle-2-Copy-13" fill="#FFD097"/><path d="M24.6264464,40.0489226 L48.6264464,40.0489226 L48.6264464,50.0489226 L40.2920763,59.0332002 C38.4140517,61.0576717 35.2504535,61.1763903 33.2259821,59.2983657 C33.1343089,59.2133241 33.0458583,59.1248734 32.9608166,59.0332002 L24.6264464,50.0489226 L24.6264464,40.0489226 Z" id="Rectangle-2-Copy-14" fill="#E5E5E5"/><rect id="Rectangle-2-Copy-15" fill="#DBAA6F" x="30.1337453" y="31.7739761" width="2.89826469" height="4.3649679" rx="1.44913234"/><rect id="Rectangle-2-Copy-16" fill="#DBAA6F" x="40.2776717" y="31.7739761" width="2.89826469" height="4.3649679" rx="1.44913234"/><path d="M47,39.3038476 C51.5437799,41.9272001 53.1005939,47.737309 50.4772413,52.2810889 C50.0630278,52.9985278 49.1456422,53.2443406 48.4282032,52.830127 L34.5717968,44.830127 C33.8543578,44.4159135 33.6085451,43.4985278 34.0227587,42.7810889 C36.6461112,38.237309 42.4562201,36.680495 47,39.3038476 Z M45.5,41.9019238 C42.8382002,40.365133 39.5412553,40.9249636 37.5214643,43.0690167 L48.4785357,49.3950849 C49.3254447,46.573868 48.1617998,43.4387146 45.5,41.9019238 Z" id="Shape" fill="#FFFFFF" fill-rule="nonzero"/><path d="M26,39.3038476 C30.5437799,36.680495 36.3538888,38.237309 38.9772413,42.7810889 C39.3914549,43.4985278 39.1456422,44.4159135 38.4282032,44.830127 L24.5717968,52.830127 C23.8543578,53.2443406 22.9369722,52.9985278 22.5227587,52.2810889 C19.8994061,47.737309 21.4562201,41.9272001 26,39.3038476 Z M35.4785357,43.0690167 C33.4587447,40.9249636 30.1617998,40.365133 27.5,41.9019238 C24.8382002,43.4387146 23.6745553,46.573868 24.5214643,49.3950849 L35.4785357,43.0690167 Z" id="Shape" fill="#FFFFFF" fill-rule="nonzero"/><path d="M44.25,40.0669873 C48.668278,40.0669873 52.25,43.6487093 52.25,48.0669873 L52.25,48.0669873 L36.25,48.0669873 C36.25,43.6487093 39.831722,40.0669873 44.25,40.0669873 Z" id="Rectangle-Copy-274" fill="#FFFFFF" transform="translate(44.250000, 44.066987) scale(-1, 1) rotate(-30.000000) translate(-44.250000, -44.066987)"/><path d="M28.75,40.0669873 C33.168278,40.0669873 36.75,43.6487093 36.75,48.0669873 L36.75,48.0669873 L20.75,48.0669873 C20.75,43.6487093 24.331722,40.0669873 28.75,40.0669873 Z" id="Rectangle-Copy-275" fill="#FFFFFF" transform="translate(28.750000, 44.066987) rotate(-30.000000) translate(-28.750000, -44.066987)"/><path d="M35.9611924,28.5914921 L37.3484893,28.5914921 C38.1658984,28.5914921 38.8285394,29.2541331 38.8285394,30.0715422 L38.8285394,39.5688725 C38.8285394,40.3862816 38.1658984,41.0489226 37.3484893,41.0489226 L35.9611924,41.0489226 C35.1437833,41.0489226 34.4811424,40.3862816 34.4811424,39.5688725 L34.4811424,30.0715422 C34.4811424,29.2541331 35.1437833,28.5914921 35.9611924,28.5914921 Z" id="Rectangle-3-Copy-5" fill="#F3AD6D"/><path d="M35.3085895,28.5914921 L38.3484893,28.5914921 C39.1658984,28.5914921 39.8285394,29.2541331 39.8285394,30.0715422 L39.8285394,30.1114421 C39.8285394,30.9288512 39.1658984,31.5914921 38.3484893,31.5914921 L35.3085895,31.5914921 C34.4911804,31.5914921 33.8285394,30.9288512 33.8285394,30.1114421 L33.8285394,30.0715422 C33.8285394,29.2541331 34.4911804,28.5914921 35.3085895,28.5914921 Z" id="Rectangle-3-Copy-6" fill="#F3AD6D"/><rect id="Rectangle-6-Copy-6" fill="#FFFFFF" x="38.1039732" y="29.5914921" width="7.97022789" height="3.63747325" rx="1.81873662"/><rect id="Rectangle-6-Copy-7" fill="#FFFFFF" x="27.2354806" y="29.5914921" width="7.97022789" height="3.63747325" rx="1.81873662"/><path d="M32.7803738,6 L39.5729095,6 C40.3154681,6 40.9969019,6.41140351 41.342746,7.06850713 L50.7803738,25 L22.7803738,25 L32.7803738,6 Z" id="Rectangle-Copy-276" fill="#1899D6"/><path d="M12.5098946,24.7226925 L60.2489195,24.7226925 C61.635096,24.7226925 62.7588141,25.8464106 62.7588141,27.232587 C62.7588141,28.6187635 61.635096,29.7424816 60.2489195,29.7424816 L12.5098946,29.7424816 C11.1237181,29.7424816 10,28.6187635 10,27.232587 C10,25.8464106 11.1237181,24.7226925 12.5098946,24.7226925 Z" id="Rectangle-6-Copy-8" fill="#1CB0F6"/><path d="M22.9886187,6 L36,6 L36,15 L22.3730717,8.86788226 C21.6176112,8.52792503 21.2807792,7.63991349 21.6207364,6.88445298 C21.8629607,6.34617692 22.3983529,6 22.9886187,6 Z" id="Path" fill="#1899D6"/><path d="M40.1720007,14.1852351 C40.44249,14.5260122 40.1788099,15.0257484 39.7448318,14.9948212 C39.691324,14.991008 39.6374754,14.9890909 39.5833467,14.9890909 C38.3723355,14.9890909 37.3937993,15.9522463 37.3937993,17.1363636 C37.3937993,18.320481 38.3723355,19.2836364 39.5833467,19.2836364 C39.6374754,19.2836364 39.691324,19.2817192 39.7448318,19.277906 C40.1788099,19.2469789 40.44249,19.7467151 40.1720007,20.0874922 C39.3319008,21.1458956 38.0833263,21.7727273 36.7355906,21.7727273 C34.2699095,21.7727273 32.2803738,19.6920719 32.2803738,17.1363636 C32.2803738,14.5806553 34.2699095,12.5 36.7355906,12.5 C38.0833263,12.5 39.3319008,13.1268316 40.1720007,14.1852351 Z M36.7355906,13.5 C34.8324599,13.5 33.2803738,15.1231708 33.2803738,17.1363636 C33.2803738,19.1495565 34.8324599,20.7727273 36.7355906,20.7727273 C37.4378935,20.7727273 38.1061432,20.5509893 38.6674342,20.1519001 C37.3531679,19.7637193 36.3937993,18.5616571 36.3937993,17.1363636 C36.3937993,15.7110702 37.3531679,14.509008 38.6674342,14.1208272 C38.1061432,13.7217379 37.4378935,13.5 36.7355906,13.5 Z" id="Path-Copy-5" fill="#FFD900" fill-rule="nonzero"/><path d="M39.7803738,14.4960861 C39.7153124,14.4914495 39.6496094,14.4890909 39.5833467,14.4890909 C38.0979507,14.4890909 36.8937993,15.6743153 36.8937993,17.1363636 C36.8937993,18.598412 38.0979507,19.7836364 39.5833467,19.7836364 C39.6496094,19.7836364 39.7153124,19.7812778 39.7803738,19.7766412 C39.0548752,20.6906636 37.9602302,21.2727273 36.7355906,21.2727273 C34.5511847,21.2727273 32.7803738,19.4208142 32.7803738,17.1363636 C32.7803738,14.8519131 34.5511847,13 36.7355906,13 C37.9602302,13 39.0548752,13.5820636 39.7803738,14.4960861 L39.7803738,14.4960861 Z" id="Path-Copy-5" fill="#FFD900"/></g></svg>