<?xml version="1.0" encoding="UTF-8"?><svg width="73px" height="90px" viewBox="0 0 73 90" version="1.1" xmlns="http://www.w3.org/2000/svg" xmlns:xlink="http://www.w3.org/1999/xlink"><title>Scholar</title><desc>Created with Sketch.</desc><g id="Scholar" stroke="none" stroke-width="1" fill="none" fill-rule="evenodd"><path d="M14,0 L59.0000325,0 C66.732019,-3.19669972e-15 73.0000325,6.2680135 73.0000325,14 L73.0000325,76 C73.0000325,83.7319865 66.732019,90 59.0000325,90 L14,90 C6.2680135,90 4.49960893e-15,83.7319865 0,76 L0,14 C-2.72325209e-15,6.2680135 6.2680135,-3.56013962e-16 14,0 Z" id="Shield-Copy-15" fill="#C93939" fill-rule="nonzero"/><path d="M14,0 L59.0000325,0 C66.732019,2.1323708e-15 73.0000325,6.2680135 73.0000325,14 L73.0000325,72 C73.0000325,79.7319865 66.732019,86 59.0000325,86 L14,86 C6.2680135,86 1.67924438e-13,79.7319865 1.63424829e-13,72 L1.63424829e-13,14 C1.64254291e-13,6.2680135 6.2680135,1.42034288e-15 14,0 Z" id="Shield-Copy-16" fill="#FC4848" fill-rule="nonzero"/><path d="M20.5171235,14.7078969 C21.9329603,14.8744659 23,16.0743987 23,17.5 C23,18.9256013 21.9329603,20.1255341 20.5171235,20.2921031 L10.4691777,21.4742144 C10.313995,21.4924712 10.1578761,21.5016231 10.0016231,21.5016231 C7.79158768,21.5016231 6,19.7100354 6,17.5 C6,17.343747 6.0091519,17.1876281 6.0274087,17.0324454 C6.28563199,14.8375474 8.27427972,13.2675623 10.4691777,13.5257856 L20.5171235,14.7078969 Z" id="Rectangle" fill="#FFC800"/><path d="M52.4828765,14.7078969 L62.5308223,13.5257856 C64.7257203,13.2675623 66.714368,14.8375474 66.9725913,17.0324454 C66.9908481,17.1876281 67,17.343747 67,17.5 C67,19.7100354 65.2084123,21.5016231 62.9983769,21.5016231 C62.8421239,21.5016231 62.686005,21.4924712 62.5308223,21.4742144 L52.4828765,20.2921031 C51.0670397,20.1255341 50,18.9256013 50,17.5 C50,16.0743987 51.0670397,14.8744659 52.4828765,14.7078969 Z" id="Rectangle" fill="#FFC800"/><polygon id="Rectangle-Copy-32" fill="#FEEDED" points="51 18 51 49 21 49 21 18"/><polygon id="Rectangle" fill="#FFFFFF" points="57 12 57 23 16 23 16 12"/><path d="M13.5,11.5 C13.5,9.84314575 14.8431458,8.5 16.5,8.5 C18.1568542,8.5 19.5,9.84314575 19.5,11.5 L19.5,22.5 C19.5,24.1568542 18.1568542,25.5 16.5,25.5 C14.8431458,25.5 13.5,24.1568542 13.5,22.5 L13.5,11.5 Z" id="Rectangle" fill="#FFD900"/><path d="M58.5,11.5 L58.5,22.5 C58.5,24.1568542 57.1568542,25.5 55.5,25.5 C53.8431458,25.5 52.5,24.1568542 52.5,22.5 L52.5,11.5 C52.5,9.84314575 53.8431458,8.5 55.5,8.5 C57.1568542,8.5 58.5,9.84314575 58.5,11.5 Z" id="Rectangle" fill="#FFD900"/><path d="M20.5171235,46.7078969 C21.9329603,46.8744659 23,48.0743987 23,49.5 C23,50.9256013 21.9329603,52.1255341 20.5171235,52.2921031 L10.4691777,53.4742144 C10.313995,53.4924712 10.1578761,53.5016231 10.0016231,53.5016231 C7.79158768,53.5016231 6,51.7100354 6,49.5 C6,49.343747 6.0091519,49.1876281 6.0274087,49.0324454 C6.28563199,46.8375474 8.27427972,45.2675623 10.4691777,45.5257856 L20.5171235,46.7078969 Z" id="Rectangle" fill="#FFC800"/><path d="M52.4828765,46.7078969 L62.5308223,45.5257856 C64.7257203,45.2675623 66.714368,46.8375474 66.9725913,49.0324454 C66.9908481,49.1876281 67,49.343747 67,49.5 C67,51.7100354 65.2084123,53.5016231 62.9983769,53.5016231 C62.8421239,53.5016231 62.686005,53.4924712 62.5308223,53.4742144 L52.4828765,52.2921031 C51.0670397,52.1255341 50,50.9256013 50,49.5 C50,48.0743987 51.0670397,46.8744659 52.4828765,46.7078969 Z" id="Rectangle" fill="#FFC800"/><polygon id="Rectangle" fill="#FFFFFF" points="57 44 57 55 16 55 16 44"/><path d="M13.5,43.5 C13.5,41.8431458 14.8431458,40.5 16.5,40.5 C18.1568542,40.5 19.5,41.8431458 19.5,43.5 L19.5,54.5 C19.5,56.1568542 18.1568542,57.5 16.5,57.5 C14.8431458,57.5 13.5,56.1568542 13.5,54.5 L13.5,43.5 Z" id="Rectangle" fill="#FFD900"/><path d="M58.5,43.5 L58.5,54.5 C58.5,56.1568542 57.1568542,57.5 55.5,57.5 C53.8431458,57.5 52.5,56.1568542 52.5,54.5 L52.5,43.5 C52.5,41.8431458 53.8431458,40.5 55.5,40.5 C57.1568542,40.5 58.5,41.8431458 58.5,43.5 Z" id="Rectangle" fill="#FFD900"/><path d="M16,12 C17.1045695,12 18,12.8954305 18,14 L18,18 C18,19.1045695 17.1045695,20 16,20 C14.8954305,20 14,19.1045695 14,18 L14,14 C14,12.8954305 14.8954305,12 16,12 Z" id="Rectangle" fill="#FFF5BE"/><path d="M25,32 L47,32 C47.5522847,32 48,32.4477153 48,33 L48,34 C48,34.5522847 47.5522847,35 47,35 L25,35 C24.4477153,35 24,34.5522847 24,34 L24,33 C24,32.4477153 24.4477153,32 25,32 Z" id="Rectangle" fill="#FDCBCB"/><path d="M25,27 L37,27 C37.5522847,27 38,27.4477153 38,28 L38,29 C38,29.5522847 37.5522847,30 37,30 L25,30 C24.4477153,30 24,29.5522847 24,29 L24,28 C24,27.4477153 24.4477153,27 25,27 Z" id="Rectangle-Copy-51" fill="#FDCBCB"/><path d="M25,37 L42,37 C42.5522847,37 43,37.4477153 43,38 L43,39 C43,39.5522847 42.5522847,40 42,40 L25,40 C24.4477153,40 24,39.5522847 24,39 L24,38 C24,37.4477153 24.4477153,37 25,37 Z" id="Rectangle-Copy-34" fill="#FDCBCB"/></g></svg>