<?xml version="1.0" encoding="UTF-8"?><svg width="73px" height="90px" viewBox="0 0 73 90" version="1.1" xmlns="http://www.w3.org/2000/svg" xmlns:xlink="http://www.w3.org/1999/xlink"><title>Sharpshooter</title><desc>Created with Sketch.</desc><g id="Sharpshooter" stroke="none" stroke-width="1" fill="none" fill-rule="evenodd"><path d="M14,0 L59.0000325,0 C66.732019,-3.19669972e-15 73.0000325,6.2680135 73.0000325,14 L73.0000325,76 C73.0000325,83.7319865 66.732019,90 59.0000325,90 L14,90 C6.2680135,90 1.67924438e-13,83.7319865 1.63424829e-13,76 L1.63424829e-13,14 C1.60701577e-13,6.2680135 6.2680135,-3.56013962e-16 14,0 Z" id="Shield-Copy-13" fill="#619F09" fill-rule="nonzero"/><path d="M14,0 L59.0000325,0 C66.732019,2.1323708e-15 73.0000325,6.2680135 73.0000325,14 L73.0000325,72 C73.0000325,79.7319865 66.732019,86 59.0000325,86 L14,86 C6.2680135,86 1.67924438e-13,79.7319865 1.63424829e-13,72 L1.63424829e-13,14 C1.64254291e-13,6.2680135 6.2680135,1.42034288e-15 14,0 Z" id="Shield-Copy-14" fill="#7AC70C" fill-rule="nonzero"/><path d="M10.2734231,36.3925759 L11.3854639,36.6859574 C14.5610677,37.5237537 17.9123753,36.1979686 19.6553476,33.4143722 L21.719679,30.1175525 C23.8842907,26.6605811 27.4481713,24.3187821 31.4803091,23.7039163 L35.8768715,23.033479 C37.2418048,22.8253386 38.1795707,21.5501104 37.9714303,20.1851772 C37.7632899,18.8202439 36.4880618,17.882478 35.1231285,18.0906184 L30.7265661,18.7610557 C25.2551634,19.5953968 20.4191615,22.773097 17.4818953,27.4640286 L15.4175639,30.7608483 C14.8365731,31.6887138 13.7194706,32.1306421 12.660936,31.8513767 L11.5488952,31.5579951 C10.2138626,31.2057832 8.84608065,32.0025168 8.49386877,33.3375494 C8.14165688,34.6725821 8.9383905,36.040364 10.2734231,36.3925759 Z" id="Path-17-Copy" fill="#936E3D" fill-rule="nonzero"/><path d="M62.1374696,36.3925759 L61.0254287,36.6859574 C57.849825,37.5237537 54.4985174,36.1979686 52.7555451,33.4143722 L50.6912137,30.1175525 C48.526602,26.6605811 44.9627214,24.3187821 40.9305835,23.7039163 L36.5340211,23.033479 C35.1690879,22.8253386 34.2313219,21.5501104 34.4394623,20.1851772 C34.6476027,18.8202439 35.9228309,17.882478 37.2877642,18.0906184 L41.6843266,18.7610557 C47.1557293,19.5953968 51.9917311,22.773097 54.9289974,27.4640286 L56.9933288,30.7608483 C57.5743196,31.6887138 58.6914221,32.1306421 59.7499567,31.8513767 L60.8619975,31.5579951 C62.1970301,31.2057832 63.564812,32.0025168 63.9170239,33.3375494 C64.2692358,34.6725821 63.4725022,36.040364 62.1374696,36.3925759 Z" id="Path" fill="#936E3D" fill-rule="nonzero"/><rect id="Rectangle-Copy-23" fill="#FFFFFF" transform="translate(25.000000, 36.207757) scale(-1, 1) rotate(-300.000000) translate(-25.000000, -36.207757)" x="24" y="23.207757" width="2" height="26" rx="1"/><rect id="Rectangle-Copy-31" fill="#FFFFFF" transform="translate(48.000000, 36.207757) rotate(-300.000000) translate(-48.000000, -36.207757)" x="47" y="23.207757" width="2" height="26" rx="1"/><path d="M37.5,46.457757 L47.5,46.457757 L44.7763932,51.9049706 C44.6070012,52.2437546 44.2607381,52.457757 43.881966,52.457757 L36.118034,52.457757 C35.5657492,52.457757 35.118034,52.0100418 35.118034,51.457757 C35.118034,51.3025119 35.1541791,51.1493988 35.2236068,51.0105434 L37.5,46.457757 Z" id="Rectangle-Copy-2" fill="#FF3E3E" transform="translate(41.000000, 49.457757) rotate(-90.000000) translate(-41.000000, -49.457757)"/><path d="M28.5,46.457757 L38.5,46.457757 L35.7763932,51.9049706 C35.6070012,52.2437546 35.2607381,52.457757 34.881966,52.457757 L27.118034,52.457757 C26.5657492,52.457757 26.118034,52.0100418 26.118034,51.457757 C26.118034,51.3025119 26.1541791,51.1493988 26.2236068,51.0105434 L28.5,46.457757 Z" id="Rectangle-Copy-33" fill="#FF3E3E" transform="translate(32.000000, 49.457757) scale(-1, 1) rotate(-90.000000) translate(-32.000000, -49.457757)"/><path d="M35,18.957757 L38,18.957757 L38,53.457757 C38,54.2861841 37.3284271,54.957757 36.5,54.957757 C35.6715729,54.957757 35,54.2861841 35,53.457757 L35,18.957757 Z" id="Rectangle-Copy-4" fill="#EEB467"/><path d="M32.6948984,11.1493409 L38.9782516,9.13629758 C39.5042033,8.96779462 40.06717,9.25756409 40.235673,9.7835158 C40.2992466,9.98194933 40.2992466,10.1952854 40.235673,10.393719 L38.2226296,16.6770722 C38.0899889,17.0910865 37.7050528,17.3719706 37.2703098,17.3719706 L32,17.3719706 L32,12.1016607 C32,11.6669178 32.2808841,11.2819817 32.6948984,11.1493409 Z" id="Rectangle-Copy-5" fill="#FFFFFF" transform="translate(36.414214, 12.957757) rotate(-45.000000) translate(-36.414214, -12.957757)"/><path d="M35.5,17.957757 L37.5,17.957757 C38.3284271,17.957757 39,18.6293299 39,19.457757 L39,23.457757 C39,24.2861841 38.3284271,24.957757 37.5,24.957757 L35.5,24.957757 C34.6715729,24.957757 34,24.2861841 34,23.457757 L34,19.457757 C34,18.6293299 34.6715729,17.957757 35.5,17.957757 Z" id="Rectangle-Copy-6" fill="#D7A056"/><path d="M29.5,16.957757 C30.3284271,16.957757 31,17.6293299 31,18.457757 L31,24.457757 C31,25.2861841 30.3284271,25.957757 29.5,25.957757 C28.6715729,25.957757 28,25.2861841 28,24.457757 L28,18.457757 C28,17.6293299 28.6715729,16.957757 29.5,16.957757 Z" id="Rectangle-Copy-7" fill="#FF3E3E"/><path d="M43.5,16.957757 C44.3284271,16.957757 45,17.6293299 45,18.457757 L45,24.457757 C45,25.2861841 44.3284271,25.957757 43.5,25.957757 C42.6715729,25.957757 42,25.2861841 42,24.457757 L42,18.457757 C42,17.6293299 42.6715729,16.957757 43.5,16.957757 Z" id="Rectangle-Copy-35" fill="#FF3E3E"/></g></svg>