<?xml version="1.0" encoding="UTF-8"?><svg width="73px" height="90px" viewBox="0 0 73 90" version="1.1" xmlns="http://www.w3.org/2000/svg" xmlns:xlink="http://www.w3.org/1999/xlink"><title>Wildfire</title><desc>Created with Sketch.</desc><g id="Wildfire" stroke="none" stroke-width="1" fill="none" fill-rule="evenodd"><path d="M14,0 L59.0000325,0 C66.732019,-3.19669972e-15 73.0000325,6.2680135 73.0000325,14 L73.0000325,76 C73.0000325,83.7319865 66.732019,90 59.0000325,90 L14,90 C6.2680135,90 4.49960893e-15,83.7319865 0,76 L0,14 C-2.72325209e-15,6.2680135 6.2680135,-3.56013962e-16 14,0 Z" id="Shield-Copy-15" fill="#C93939" fill-rule="nonzero"/><path d="M14,0 L59.0000325,0 C66.732019,2.1323708e-15 73.0000325,6.2680135 73.0000325,14 L73.0000325,72 C73.0000325,79.7319865 66.732019,86 59.0000325,86 L14,86 C6.2680135,86 1.67924438e-13,79.7319865 1.63424829e-13,72 L1.63424829e-13,14 C1.64254291e-13,6.2680135 6.2680135,1.42034288e-15 14,0 Z" id="Shield-Copy-16" fill="#FC4848" fill-rule="nonzero"/><ellipse id="Oval-5" fill="#FF9600" cx="37" cy="38.2777778" rx="18" ry="16.7222222"/><path d="M39.4143607,13.6674239 L51.1847555,27.9834343 C51.7329116,28.6501416 51.6368069,29.6349829 50.9700996,30.183139 C50.6904394,30.4130711 50.3396229,30.5387731 49.9775752,30.5387731 L24.0224248,30.5387731 C23.1593062,30.5387731 22.4596104,29.8390773 22.4596104,28.9759587 C22.4596104,28.613911 22.5853124,28.2630944 22.8152445,27.9834343 L34.5856393,13.6674239 C35.6819514,12.3340093 37.6516342,12.1417998 38.9850488,13.238112 C39.1417453,13.3669453 39.2855274,13.5107274 39.4143607,13.6674239 Z" id="Triangle-2" fill="#FF9600"/><path d="M23.8576366,19.5041254 L36.8792443,26.2285834 C37.8262051,26.7176012 38.3339744,27.8662536 38.0133788,28.7941703 C37.8923051,29.1446005 37.6624404,29.4285153 37.3559589,29.6061754 L21.9846962,38.5165341 C21.1731526,38.9869668 20.0419401,38.6083535 19.4580623,37.6708777 C19.2375594,37.3168375 19.1184053,36.9161072 19.1172779,36.5247767 L19.0762064,22.2757946 C19.0702588,20.2033582 20.2399165,18.6745252 22.2394238,18.9996081 C22.6378794,19.0643896 23.4802218,19.3092255 23.8576366,19.5041254 Z" id="Triangle-2" fill="#FF9600"/><ellipse id="Oval-5" fill="#FFC800" cx="37" cy="41.462963" rx="7.71428571" ry="7.16666667"/><path d="M38.1637782,30.7263457 L42.7440542,36.7433314 C43.0015185,37.0815554 42.9360499,37.5644562 42.5978259,37.8219205 C42.4638215,37.9239279 42.3000577,37.9791667 42.1316455,37.9791667 L31.746276,37.9791667 C31.3212074,37.9791667 30.9766211,37.6345804 30.9766211,37.2095118 C30.9766211,37.0410995 31.0318599,36.8773358 31.1338673,36.7433314 L35.7141433,30.7263457 C36.229072,30.0498977 37.1948736,29.9189605 37.8713216,30.4338892 C37.9815195,30.5177745 38.0798928,30.6161478 38.1637782,30.7263457 Z" id="Triangle-2" fill="#FFC800"/><rect id="Rectangle" fill="#FDA3A3" transform="translate(53.500000, 16.500000) rotate(-45.000000) translate(-53.500000, -16.500000)" x="50" y="13" width="7" height="7" rx="2"/><rect id="Rectangle-Copy-10" fill="#FDA3A3" transform="translate(14.500000, 48.500000) rotate(-45.000000) translate(-14.500000, -48.500000)" x="12" y="46" width="5" height="5" rx="1.5"/></g></svg>