<?xml version="1.0" encoding="UTF-8"?><svg width="73px" height="90px" viewBox="0 0 73 90" version="1.1" xmlns="http://www.w3.org/2000/svg" xmlns:xlink="http://www.w3.org/1999/xlink"><title>Winner</title><desc>Created with Sketch.</desc><g id="Winner" stroke="none" stroke-width="1" fill="none" fill-rule="evenodd"><path d="M14,0 L59.0000325,0 C66.732019,-3.19669972e-15 73.0000325,6.2680135 73.0000325,14 L73.0000325,76 C73.0000325,83.7319865 66.732019,90 59.0000325,90 L14,90 C6.2680135,90 1.67924438e-13,83.7319865 1.63424829e-13,76 L1.63424829e-13,14 C1.60701577e-13,6.2680135 6.2680135,-3.56013962e-16 14,0 Z" id="Shield-Copy-13" fill="#AC68D7" fill-rule="nonzero"/><path d="M14,0 L59.0000325,0 C66.732019,2.1323708e-15 73.0000325,6.2680135 73.0000325,14 L73.0000325,72 C73.0000325,79.7319865 66.732019,86 59.0000325,86 L14,86 C6.2680135,86 1.67924438e-13,79.7319865 1.63424829e-13,72 L1.63424829e-13,14 C1.64254291e-13,6.2680135 6.2680135,1.42034288e-15 14,0 Z" id="Shield-Copy-14" fill="#CE82FF" fill-rule="nonzero"/><path d="M15.5,19.4261111 L58.3,19.4261111 C60.1142554,19.4261111 61.585,20.8968557 61.585,22.7111112 L61.585,28.2777778 C61.585,33.1664183 57.6219738,37.1294444 52.7333333,37.1294444 L21.2666667,37.1294444 C16.3780262,37.1294444 12.415,33.1664183 12.415,28.2777778 L12.415,22.5111111 C12.415,20.8073127 13.7962015,19.4261111 15.5,19.4261111 Z M17.585,28.2777778 C17.585,30.3111061 19.2333383,31.9594444 21.2666667,31.9594444 L52.7333333,31.9594444 C54.7666617,31.9594444 56.415,30.3111061 56.415,28.2777778 L56.415,24.5961111 L17.585,24.5961111 L17.585,28.2777778 Z" id="Rectangle" fill="#FFBF00" fill-rule="nonzero"/><polygon id="Rectangle" fill="#FFBF00" points="34.4273504 35.4244444 39.5726496 35.4244444 39.5726496 52.1355556 34.4273504 52.1355556"/><path d="M36.2688889,40.8808547 L37.7311111,40.8808547 C38.7694064,40.8808547 39.6111111,41.7225594 39.6111111,42.7608547 L39.6111111,57.3324786 C39.6111111,58.370774 38.7694064,59.2124786 37.7311111,59.2124786 L36.2688889,59.2124786 C35.2305936,59.2124786 34.3888889,58.370774 34.3888889,57.3324786 L34.3888889,42.7608547 C34.3888889,41.7225594 35.2305936,40.8808547 36.2688889,40.8808547 Z" id="Rectangle" fill="#FFBF00" transform="translate(37.000000, 50.046667) rotate(-90.000000) translate(-37.000000, -50.046667)"/><path d="M36.2688889,38.1008547 L37.7311111,38.1008547 C38.7694064,38.1008547 39.6111111,38.9425594 39.6111111,39.9808547 L39.6111111,65.7524786 C39.6111111,66.790774 38.7694064,67.6324786 37.7311111,67.6324786 L36.2688889,67.6324786 C35.2305936,67.6324786 34.3888889,66.790774 34.3888889,65.7524786 L34.3888889,39.9808547 C34.3888889,38.9425594 35.2305936,38.1008547 36.2688889,38.1008547 Z" id="Rectangle" fill="#FFBF00" transform="translate(37.000000, 52.866667) rotate(-90.000000) translate(-37.000000, -52.866667)"/><path d="M23.2991453,13.76 L50.7008547,13.76 L50.7008547,28.9302564 C50.7008547,36.4970295 44.5667731,42.6311111 37,42.6311111 C29.4332269,42.6311111 23.2991453,36.4970295 23.2991453,28.9302564 L23.2991453,13.76 Z" id="Rectangle" fill="#FFD900"/><path d="M24.237116,13.76 L31.6456254,13.76 L50.1766223,32.696779 C48.9000369,37.1711679 45.4059553,40.7105156 40.9586789,42.0505208 L23.4666667,24.1754778 L23.4666667,15.7339999 C23.4666667,14.9724518 23.7587999,14.279135 24.237116,13.76 L24.237116,13.76 Z" id="Path" fill="#FFE659"/><path d="M37.4344828,21.2115337 C38.5542877,21.2115337 39.462069,22.1193149 39.462069,23.2391199 L39.462069,35.0368441 C39.462069,36.156649 38.5542877,37.0644303 37.4344828,37.0644303 C36.3146778,37.0644303 35.4068966,36.156649 35.4068966,35.0368441 L35.4068966,23.2391199 C35.4068966,22.1193149 36.3146778,21.2115337 37.4344828,21.2115337 Z" id="Rectangle" fill="#F89701"/><path d="M35.275308,19.8458189 C36.3327066,19.8312356 37.2017196,20.6766044 37.2163029,21.7340031 C37.2165216,21.7498598 37.2165433,21.7657187 37.216368,21.781576 L37.1600284,26.8776174 C37.1479575,27.9694564 36.26737,28.8524562 35.1755681,28.867514 C34.1181695,28.8820973 33.2491564,28.0367285 33.2345731,26.9793299 C33.2343544,26.9634731 33.2343327,26.9476142 33.234508,26.9317569 L33.2908476,21.8357156 C33.3029185,20.7438765 34.183506,19.8608767 35.275308,19.8458189 Z" id="Rectangle-Copy" fill="#F89701" transform="translate(35.225438, 24.356666) rotate(-120.000000) translate(-35.225438, -24.356666)"/><polygon id="Rectangle" fill="#FFBF00" points="23.2991453 15.64 50.7008547 15.64 50.7008547 19.4 23.2991453 19.4"/><path d="M33.4853403,15.6399999 L37.1647701,19.4 L23.4666667,19.4 L23.4666667,15.7339999 C23.4666667,15.7025477 23.467165,15.6712119 23.4681541,15.6399999 L33.4853403,15.6399999 Z" id="Path" fill="#FFC320"/><path d="M21.6133333,10 L52.3866667,10 C53.424962,10 54.2666667,10.8417047 54.2666667,11.88 L54.2666667,14.7 C54.2666667,15.7382953 53.424962,16.58 52.3866667,16.58 L21.6133333,16.58 C20.575038,16.58 19.7333333,15.7382953 19.7333333,14.7 L19.7333333,11.88 C19.7333333,10.8417047 20.575038,10 21.6133333,10 Z" id="Rectangle" fill="#FFD900"/><rect id="Rectangle" fill="#FFF5C0" x="21.6" y="10.94" width="9.33333333" height="2.82" rx="0.94"/></g></svg>